<svg xmlns="http://www.w3.org/2000/svg" version="1.1" width="3120px" height="3120px" style="shape-rendering:geometricPrecision; text-rendering:geometricPrecision; image-rendering:optimizeQuality; fill-rule:evenodd; clip-rule:evenodd"
    xmlns:xlink="http://www.w3.org/1999/xlink">
    <g>
        <path style="opacity:0.014" fill="#efefef" d="M 646.5,466.5 C 644.956,466.297 643.622,465.63 642.5,464.5C 641.378,465.63 640.044,466.297 638.5,466.5C 641.337,461.312 644.003,461.312 646.5,466.5 Z"/>
    </g>
    <g>
        <path style="opacity:0.937" fill="#020202" d="M 646.5,466.5 C 945.999,467.833 1245.83,468.5 1546,468.5C 1849.68,468.491 2153.35,467.825 2457,466.5C 2461.35,466.568 2465.52,467.234 2469.5,468.5C 2470.83,1130.83 2470.83,1793.17 2469.5,2455.5C 2466.63,2458.37 2463.3,2460.37 2459.5,2461.5C 2457.21,2461.59 2455.21,2462.26 2453.5,2463.5C 2449.43,2467.05 2445.1,2470.38 2440.5,2473.5C 2429.81,2478.88 2419.14,2484.21 2408.5,2489.5C 2394.62,2498.94 2380.29,2507.61 2365.5,2515.5C 2364.17,2516.83 2362.83,2518.17 2361.5,2519.5C 2355.31,2520.92 2349.65,2523.25 2344.5,2526.5C 2343.5,2526.83 2342.83,2527.5 2342.5,2528.5C 2342.06,2530.07 2341.06,2531.24 2339.5,2532C 2336.05,2532.86 2332.72,2534.03 2329.5,2535.5C 2321.73,2541.38 2313.4,2546.21 2304.5,2550C 2301.37,2554.5 2297.03,2556.83 2291.5,2557C 2286.98,2560.09 2282.31,2562.93 2277.5,2565.5C 2272.4,2570.38 2266.4,2573.72 2259.5,2575.5C 2256.44,2577.65 2253.44,2579.99 2250.5,2582.5C 2246.72,2584.45 2242.72,2585.78 2238.5,2586.5C 2234.33,2591.06 2229.33,2594.39 2223.5,2596.5C 2220.17,2600.66 2215.84,2603 2210.5,2603.5C 2205.43,2608.59 2199.43,2611.92 2192.5,2613.5C 2186.37,2618.99 2179.37,2622.65 2171.5,2624.5C 2171.52,2626.14 2170.85,2627.48 2169.5,2628.5C 2167.26,2629.47 2164.92,2629.81 2162.5,2629.5C 2162.67,2631.49 2162,2633.16 2160.5,2634.5C 2152.65,2636.86 2145.99,2641.02 2140.5,2647C 2136.37,2647.4 2132.71,2648.9 2129.5,2651.5C 2126.91,2652.48 2124.25,2652.81 2121.5,2652.5C 2121.57,2657.1 2119.23,2659.43 2114.5,2659.5C 2110.01,2663.67 2104.68,2666.34 2098.5,2667.5C 2093.69,2670.43 2089.36,2674.1 2085.5,2678.5C 2081.66,2679.21 2078,2680.37 2074.5,2682C 2060.18,2691.44 2045.18,2699.94 2029.5,2707.5C 2029.02,2708.48 2028.36,2709.31 2027.5,2710C 2023.43,2710.73 2020.1,2712.73 2017.5,2716C 2012,2717.31 2007.33,2720.14 2003.5,2724.5C 2000.01,2725.44 1996.67,2726.78 1993.5,2728.5C 1987.99,2731.75 1982.65,2735.25 1977.5,2739C 1968.72,2742.56 1960.72,2747.39 1953.5,2753.5C 1950.83,2754.17 1948.17,2754.83 1945.5,2755.5C 1941.98,2758.75 1938.31,2761.75 1934.5,2764.5C 1928.61,2766.11 1923.28,2768.78 1918.5,2772.5C 1916.26,2773.47 1913.92,2773.81 1911.5,2773.5C 1911.84,2775.48 1911.18,2776.82 1909.5,2777.5C 1908.5,2777.83 1907.83,2778.5 1907.5,2779.5C 1899.03,2783.73 1890.7,2788.39 1882.5,2793.5C 1875.41,2795.21 1869.41,2798.71 1864.5,2804C 1856.46,2806.85 1849.13,2811.02 1842.5,2816.5C 1839.33,2818.22 1835.99,2819.56 1832.5,2820.5C 1829.53,2823.65 1826.2,2826.31 1822.5,2828.5C 1812.32,2832.98 1802.32,2837.98 1792.5,2843.5C 1785.25,2850.29 1776.92,2855.29 1767.5,2858.5C 1764.45,2862.27 1760.45,2864.27 1755.5,2864.5C 1753.56,2868.11 1750.56,2870.11 1746.5,2870.5C 1728.09,2881.7 1709.42,2892.37 1690.5,2902.5C 1689.17,2903.83 1687.83,2905.17 1686.5,2906.5C 1679.72,2910.28 1672.72,2913.61 1665.5,2916.5C 1662.17,2918.56 1659.17,2921.06 1656.5,2924C 1648.5,2926.04 1641.83,2930.04 1636.5,2936C 1629.42,2938.36 1623.09,2942.03 1617.5,2947C 1608.28,2949.94 1599.95,2954.44 1592.5,2960.5C 1587.19,2963.49 1581.86,2966.49 1576.5,2969.5C 1573.82,2970.07 1571.16,2970.74 1568.5,2971.5C 1562.59,2977.23 1555.76,2981.56 1548,2984.5C 1540.19,2981.19 1533.03,2976.85 1526.5,2971.5C 1514.55,2966.9 1503.55,2960.57 1493.5,2952.5C 1489.39,2951.59 1485.73,2949.92 1482.5,2947.5C 1481.89,2944.3 1479.89,2942.97 1476.5,2943.5C 1467.38,2938.44 1458.38,2933.1 1449.5,2927.5C 1441.21,2925.21 1434.21,2920.87 1428.5,2914.5C 1420.53,2911.18 1413.19,2906.85 1406.5,2901.5C 1403.43,2899.61 1400.1,2898.44 1396.5,2898C 1393.69,2897.05 1391.35,2895.39 1389.5,2893C 1381.93,2890.1 1375.09,2885.94 1369,2880.5C 1362.79,2878.09 1356.95,2875.09 1351.5,2871.5C 1351.17,2870.5 1350.5,2869.83 1349.5,2869.5C 1343.12,2866.81 1336.78,2863.81 1330.5,2860.5C 1328.42,2857.07 1325.42,2855.41 1321.5,2855.5C 1321.5,2854.17 1320.83,2853.5 1319.5,2853.5C 1313.92,2849.7 1307.92,2846.37 1301.5,2843.5C 1299.17,2841.5 1296.83,2839.5 1294.5,2837.5C 1282.36,2833.22 1271.36,2826.89 1261.5,2818.5C 1258.83,2817.83 1256.17,2817.17 1253.5,2816.5C 1249.95,2811.89 1245.28,2809.05 1239.5,2808C 1235.6,2806.03 1231.94,2803.7 1228.5,2801C 1222.9,2798.86 1217.9,2795.7 1213.5,2791.5C 1209.03,2788.9 1204.36,2786.9 1199.5,2785.5C 1191.76,2778.96 1183.1,2773.96 1173.5,2770.5C 1171.04,2767.44 1168.04,2765.11 1164.5,2763.5C 1157.17,2760.18 1149.84,2756.85 1142.5,2753.5C 1134.37,2745.77 1125.04,2740.11 1114.5,2736.5C 1104.97,2730.24 1095.31,2724.24 1085.5,2718.5C 1079.51,2716.62 1074.18,2713.62 1069.5,2709.5C 1067.17,2708.83 1064.83,2708.17 1062.5,2707.5C 1058.8,2705.31 1055.47,2702.65 1052.5,2699.5C 1050.5,2698.83 1048.5,2698.17 1046.5,2697.5C 1041.78,2695.04 1037.44,2692.04 1033.5,2688.5C 1030.7,2686.81 1027.7,2685.64 1024.5,2685C 1017.71,2678.94 1010.05,2674.44 1001.5,2671.5C 1000.82,2669.82 999.483,2669.16 997.5,2669.5C 990.346,2665.7 983.68,2661.04 977.5,2655.5C 972.17,2654.34 967.17,2652.34 962.5,2649.5C 949.681,2641.25 936.681,2633.25 923.5,2625.5C 919.936,2624.89 916.603,2623.73 913.5,2622C 907.684,2616.59 901.017,2612.42 893.5,2609.5C 889.046,2605.04 883.712,2602.37 877.5,2601.5C 867.189,2593.52 856.189,2586.85 844.5,2581.5C 844.5,2580.17 844.5,2578.83 844.5,2577.5C 842.5,2577.5 840.5,2577.5 838.5,2577.5C 830.057,2574.11 822.39,2569.45 815.5,2563.5C 805.839,2558.29 796.172,2553.29 786.5,2548.5C 778.775,2543.12 770.775,2538.12 762.5,2533.5C 760.556,2532.81 758.556,2532.31 756.5,2532C 754.937,2531.24 753.937,2530.07 753.5,2528.5C 753.167,2527.5 752.5,2526.83 751.5,2526.5C 747.578,2526.59 744.578,2524.93 742.5,2521.5C 736.265,2519.21 730.265,2516.54 724.5,2513.5C 723.754,2512.26 723.421,2510.93 723.5,2509.5C 719.883,2509.52 716.55,2508.52 713.5,2506.5C 708.342,2503.42 703.342,2500.09 698.5,2496.5C 690.365,2493.6 682.699,2489.93 675.5,2485.5C 672.532,2482.35 669.198,2479.69 665.5,2477.5C 658.889,2475.33 652.556,2472.67 646.5,2469.5C 643.927,2465.42 640.261,2463.25 635.5,2463C 634.667,2462.17 633.833,2461.33 633,2460.5C 632.333,1796.83 632.333,1133.17 633,469.5C 634.488,467.84 636.321,466.84 638.5,466.5C 640.044,466.297 641.378,465.63 642.5,464.5C 643.622,465.63 644.956,466.297 646.5,466.5 Z M 701.5,537.5 C 1267.17,537.5 1832.83,537.5 2398.5,537.5C 2398.83,1163.5 2398.5,1789.5 2397.5,2415.5C 2392.31,2418.17 2386.97,2420.67 2381.5,2423C 2368.4,2431.88 2354.73,2439.72 2340.5,2446.5C 2327.76,2455.2 2314.43,2462.87 2300.5,2469.5C 2288.34,2477.94 2275.5,2485.27 2262,2491.5C 2253.31,2497.36 2244.47,2503.02 2235.5,2508.5C 2230.53,2510.82 2225.53,2512.99 2220.5,2515C 2204.79,2526.19 2188.13,2535.86 2170.5,2544C 2158.82,2552.18 2146.49,2559.34 2133.5,2565.5C 2128.46,2568.84 2123.46,2572.17 2118.5,2575.5C 2096.67,2587.25 2075,2599.25 2053.5,2611.5C 2046.01,2616.17 2038.68,2621 2031.5,2626C 2024.9,2628.3 2018.57,2631.13 2012.5,2634.5C 1999.86,2643.49 1986.53,2651.16 1972.5,2657.5C 1956.54,2668.33 1939.87,2678 1922.5,2686.5C 1919,2689.42 1915.33,2692.08 1911.5,2694.5C 1898.43,2701.21 1885.43,2708.21 1872.5,2715.5C 1870.49,2718.02 1867.82,2719.52 1864.5,2720C 1839.82,2734.5 1815.16,2749 1790.5,2763.5C 1788.23,2764.49 1785.89,2765.32 1783.5,2766C 1774.2,2772.66 1764.53,2778.82 1754.5,2784.5C 1746.07,2787.55 1738.41,2791.88 1731.5,2797.5C 1714.23,2806.13 1697.57,2815.8 1681.5,2826.5C 1676.3,2829.17 1670.97,2831.67 1665.5,2834C 1658.7,2839.1 1651.37,2843.44 1643.5,2847C 1638.14,2851.35 1632.14,2854.68 1625.5,2857C 1599.49,2872.17 1573.49,2887.33 1547.5,2902.5C 1532.62,2893.08 1517.29,2884.58 1501.5,2877C 1494.32,2872 1486.99,2867.17 1479.5,2862.5C 1473.53,2858.94 1467.2,2855.94 1460.5,2853.5C 1453.78,2848.46 1446.78,2843.79 1439.5,2839.5C 1425.64,2832.9 1412.31,2825.23 1399.5,2816.5C 1385.31,2809.73 1371.64,2801.9 1358.5,2793C 1353.6,2790.6 1348.6,2788.44 1343.5,2786.5C 1332.28,2779.06 1320.95,2771.9 1309.5,2765C 1307.42,2764.81 1305.42,2764.31 1303.5,2763.5C 1292.31,2756.07 1280.98,2748.91 1269.5,2742C 1259.62,2738.39 1250.62,2733.23 1242.5,2726.5C 1224.52,2718.18 1207.52,2708.35 1191.5,2697C 1187.61,2696.06 1183.94,2694.56 1180.5,2692.5C 1170.47,2686.82 1160.8,2680.66 1151.5,2674C 1149.44,2673.69 1147.44,2673.19 1145.5,2672.5C 1129.9,2661.91 1113.57,2652.57 1096.5,2644.5C 1092.67,2642.08 1089,2639.42 1085.5,2636.5C 1067.52,2628.18 1050.52,2618.35 1034.5,2607C 1029.47,2604.99 1024.47,2602.82 1019.5,2600.5C 1010.77,2595.48 1002.44,2589.98 994.5,2584C 980.472,2577.82 967.139,2570.32 954.5,2561.5C 940.488,2555.19 927.155,2547.52 914.5,2538.5C 900.219,2531.69 886.552,2523.86 873.5,2515C 816.114,2482.98 759.114,2450.48 702.5,2417.5C 701.5,1790.83 701.167,1164.17 701.5,537.5 Z M 1282.5,2455.5 C 1284.2,2457.31 1285.03,2459.64 1285,2462.5C 1286.17,2463.67 1287.33,2464.83 1288.5,2466C 1285.18,2466.5 1281.85,2466.67 1278.5,2466.5C 1280.11,2462.94 1281.45,2459.27 1282.5,2455.5 Z M 1541.5,2455.5 C 1543.9,2458.44 1545.9,2461.77 1547.5,2465.5C 1544.17,2466.83 1540.83,2466.83 1537.5,2465.5C 1539.53,2462.43 1540.86,2459.1 1541.5,2455.5 Z"/>
    </g>
    <g>
        <path style="opacity:0.031" fill="#1c1c1c" d="M 2125.5,773.5 C 1745.17,773.167 1364.83,773.5 984.5,774.5C 982.215,777.639 981.882,780.972 983.5,784.5C 982.223,783.306 981.556,781.64 981.5,779.5C 981.67,777.285 982.337,775.285 983.5,773.5C 1364.33,772.167 1745,772.167 2125.5,773.5 Z"/>
    </g>
    <g>
        <path style="opacity:0.983" fill="#000000" d="M 2125.5,773.5 C 2126.53,774.552 2127.2,775.886 2127.5,777.5C 2121.7,792.992 2113.7,807.325 2103.5,820.5C 2064.34,889.223 2024.34,957.223 1983.5,1024.5C 1981.25,1029.99 1978.75,1035.32 1976,1040.5C 1970.48,1048.04 1965.31,1055.87 1960.5,1064C 1956.24,1074.02 1950.57,1083.19 1943.5,1091.5C 1893.83,1092.83 1844.17,1092.83 1794.5,1091.5C 1785.3,1082.15 1774.96,1074.48 1763.5,1068.5C 1751.11,1063.6 1738.27,1060.94 1725,1060.5C 1709.18,1061.88 1694.01,1065.88 1679.5,1072.5C 1673.24,1076.76 1667.57,1081.76 1662.5,1087.5C 1661.26,1088.25 1659.93,1088.58 1658.5,1088.5C 1658.76,1089.98 1658.43,1091.31 1657.5,1092.5C 1647.29,1103.64 1640.79,1116.64 1638,1131.5C 1636.51,1147.76 1637.67,1163.76 1641.5,1179.5C 1645.31,1186.57 1649.31,1193.57 1653.5,1200.5C 1659.17,1205.5 1664.5,1210.83 1669.5,1216.5C 1675.04,1219.76 1680.37,1223.26 1685.5,1227C 1698.51,1231.04 1711.84,1234.2 1725.5,1236.5C 1740.62,1234.05 1755.28,1230.05 1769.5,1224.5C 1777.73,1219.28 1785.06,1212.94 1791.5,1205.5C 1793.23,1204.99 1794.89,1204.32 1796.5,1203.5C 1830,1203.17 1863.5,1202.83 1897,1202.5C 1930.98,1202.51 1964.81,1203.17 1998.5,1204.5C 2001.77,1202.91 2005.1,1201.41 2008.5,1200C 2013.07,1193.94 2017.4,1187.78 2021.5,1181.5C 2030.79,1163.59 2041.12,1146.26 2052.5,1129.5C 2052.73,1125.41 2054.39,1122.08 2057.5,1119.5C 2058.3,1117.92 2058.8,1116.26 2059,1114.5C 2059.69,1113.64 2060.52,1112.98 2061.5,1112.5C 2110.54,1028.66 2159.7,944.994 2209,861.5C 2211.47,859.23 2213.47,856.563 2215,853.5C 2217.48,850.907 2219.98,850.907 2222.5,853.5C 2224.48,856.974 2226.65,860.307 2229,863.5C 2237.14,879.974 2246.14,895.974 2256,911.5C 2258.17,916.5 2260.33,921.5 2262.5,926.5C 2269.17,935.851 2275.34,945.518 2281,955.5C 2281.94,959.389 2283.44,963.056 2285.5,966.5C 2289.74,974.412 2294.41,982.079 2299.5,989.5C 2303.03,995.625 2306.03,1001.96 2308.5,1008.5C 2317.89,1023.57 2326.89,1038.9 2335.5,1054.5C 2336.83,1058.17 2336.83,1061.83 2335.5,1065.5C 2330.94,1071.95 2327.44,1078.95 2325,1086.5C 2315.8,1098.23 2308.14,1110.89 2302,1124.5C 2282.84,1154.79 2264.68,1185.79 2247.5,1217.5C 2240.69,1226.13 2235.19,1235.46 2231,1245.5C 2218.88,1264.76 2207.05,1284.09 2195.5,1303.5C 2190.34,1314.08 2184.67,1324.42 2178.5,1334.5C 2172.88,1340.97 2168.71,1348.3 2166,1356.5C 2163.74,1359.16 2161.58,1361.83 2159.5,1364.5C 2158.83,1366.5 2158.17,1368.5 2157.5,1370.5C 2147.17,1387.21 2136.83,1403.87 2126.5,1420.5C 2119.01,1436.83 2110.01,1452.16 2099.5,1466.5C 2098.51,1468.77 2097.68,1471.11 2097,1473.5C 2078.9,1502.78 2061.4,1532.44 2044.5,1562.5C 2040.09,1569.65 2035.42,1576.65 2030.5,1583.5C 2029.51,1585.77 2028.68,1588.11 2028,1590.5C 2020.7,1601.23 2013.87,1612.23 2007.5,1623.5C 2006.51,1625.77 2005.68,1628.11 2005,1630.5C 1995.42,1644.24 1986.92,1658.57 1979.5,1673.5C 1968.99,1687.84 1959.99,1703.17 1952.5,1719.5C 1939.53,1739.84 1926.86,1760.51 1914.5,1781.5C 1911.38,1790.4 1906.72,1798.4 1900.5,1805.5C 1887.57,1827.69 1874.91,1850.02 1862.5,1872.5C 1850.54,1892.78 1838.2,1912.78 1825.5,1932.5C 1821.18,1940.83 1816.84,1949.16 1812.5,1957.5C 1807.17,1964.66 1802.67,1972.32 1799,1980.5C 1797.41,1982.42 1795.91,1984.42 1794.5,1986.5C 1790.8,1988.05 1788.13,1987.05 1786.5,1983.5C 1785.17,1859.2 1785.17,1734.86 1786.5,1610.5C 1787.41,1608.58 1788.74,1606.92 1790.5,1605.5C 1800.17,1604.17 1809.83,1604.17 1819.5,1605.5C 1848,1630.91 1878.67,1633.58 1911.5,1613.5C 1936.32,1588.97 1940.99,1560.97 1925.5,1529.5C 1910.37,1508.1 1889.7,1498.27 1863.5,1500C 1855.77,1501.18 1848.1,1503.02 1840.5,1505.5C 1832.9,1509.78 1825.9,1514.78 1819.5,1520.5C 1784.03,1521.15 1748.69,1521.81 1713.5,1522.5C 1709.78,1524.04 1706.12,1525.71 1702.5,1527.5C 1700.85,1680.09 1699.85,1832.75 1699.5,1985.5C 1696.17,1988.17 1692.83,1988.17 1689.5,1985.5C 1682.17,1972.16 1674.33,1959.16 1666,1946.5C 1665.69,1944.44 1665.19,1942.44 1664.5,1940.5C 1657.82,1930.65 1651.32,1920.65 1645,1910.5C 1643.21,1906.98 1641.71,1903.32 1640.5,1899.5C 1633.37,1888.74 1626.37,1877.91 1619.5,1867C 1619.06,1865.08 1618.4,1863.25 1617.5,1861.5C 1611.5,1851.83 1605.5,1842.17 1599.5,1832.5C 1597.75,1829.5 1596.42,1826.33 1595.5,1823C 1586.07,1810.31 1578.07,1796.81 1571.5,1782.5C 1569.72,1779.9 1567.72,1777.57 1565.5,1775.5C 1558.22,1762.61 1551.22,1749.61 1544.5,1736.5C 1531.9,1716.6 1519.4,1696.6 1507,1676.5C 1505.21,1672.98 1503.71,1669.32 1502.5,1665.5C 1488.66,1643.36 1474.99,1621.02 1461.5,1598.5C 1455.38,1584.92 1447.71,1572.26 1438.5,1560.5C 1437.27,1556.29 1435.61,1552.29 1433.5,1548.5C 1423.96,1533.41 1414.96,1518.07 1406.5,1502.5C 1403.6,1499.06 1400.94,1495.39 1398.5,1491.5C 1394.12,1483.14 1389.78,1474.8 1385.5,1466.5C 1375.94,1453.26 1367.6,1439.26 1360.5,1424.5C 1356.08,1418.66 1351.92,1412.66 1348,1406.5C 1345.62,1401.61 1343.46,1396.61 1341.5,1391.5C 1328.68,1370.34 1315.68,1349.34 1302.5,1328.5C 1294.87,1311.91 1285.7,1296.24 1275,1281.5C 1272.85,1274.7 1269.35,1268.7 1264.5,1263.5C 1250.29,1237.61 1235.63,1211.95 1220.5,1186.5C 1213.54,1177.57 1207.87,1167.9 1203.5,1157.5C 1198.48,1148.77 1192.98,1140.44 1187,1132.5C 1184.85,1127.53 1182.68,1122.53 1180.5,1117.5C 1167.81,1098.01 1155.47,1078.34 1143.5,1058.5C 1140.45,1052.9 1137.79,1047.07 1135.5,1041C 1120.89,1017.62 1106.39,994.121 1092,970.5C 1085.72,957.656 1078.55,945.323 1070.5,933.5C 1065.04,921.907 1058.54,910.907 1051,900.5C 1042.51,884.856 1033.51,869.522 1024,854.5C 1019.78,844.39 1014.28,835.056 1007.5,826.5C 1000.33,812.006 992.334,798.006 983.5,784.5C 981.882,780.972 982.215,777.639 984.5,774.5C 1364.83,773.5 1745.17,773.167 2125.5,773.5 Z"/>
    </g>
    <g>
        <path style="opacity:0.962" fill="#000000" d="M 887.5,851.5 C 889.604,851.201 891.604,851.534 893.5,852.5C 896.286,855.903 898.952,859.403 901.5,863C 921.524,898.529 942.191,933.696 963.5,968.5C 973.392,987.265 984.225,1005.6 996,1023.5C 1001.49,1035.15 1007.99,1046.15 1015.5,1056.5C 1021.64,1069.45 1028.81,1081.78 1037,1093.5C 1043.75,1106.54 1051.25,1119.21 1059.5,1131.5C 1059.87,1135.37 1061.7,1138.37 1065,1140.5C 1065.67,1143.83 1065.67,1147.17 1065,1150.5C 1064.5,1151 1064,1151.5 1063.5,1152C 983.831,1152.83 904.165,1152.67 824.5,1151.5C 807.491,1122.83 790.491,1094.16 773.5,1065.5C 772.167,1062.5 772.167,1059.5 773.5,1056.5C 811.578,988.119 849.578,919.786 887.5,851.5 Z"/>
    </g>
    <g>
        <path style="opacity:0.978" fill="#000000" d="M 897.5,1261.5 C 976.503,1261.17 1055.5,1261.5 1134.5,1262.5C 1146.29,1278.41 1156.29,1295.41 1164.5,1313.5C 1167.8,1317.83 1171.13,1322.16 1174.5,1326.5C 1177.52,1335.01 1181.85,1342.68 1187.5,1349.5C 1191.38,1358.18 1196.21,1366.18 1202,1373.5C 1202.68,1375.89 1203.51,1378.23 1204.5,1380.5C 1215.71,1396.24 1225.37,1412.91 1233.5,1430.5C 1246.16,1450.34 1258.66,1470.34 1271,1490.5C 1271.31,1492.56 1271.81,1494.56 1272.5,1496.5C 1286.92,1518.92 1300.92,1541.58 1314.5,1564.5C 1318.73,1574.62 1323.73,1584.29 1329.5,1593.5C 1339.72,1610.26 1350.22,1626.93 1361,1643.5C 1365.21,1653.58 1370.71,1662.91 1377.5,1671.5C 1385.61,1689.06 1395.28,1705.72 1406.5,1721.5C 1416.56,1739.53 1426.56,1757.53 1436.5,1775.5C 1447.99,1792.9 1458.99,1810.57 1469.5,1828.5C 1477.48,1845.97 1487.31,1862.3 1499,1877.5C 1499.33,1879.17 1499.67,1880.83 1500,1882.5C 1502.07,1885.64 1503.9,1888.97 1505.5,1892.5C 1511.49,1900.48 1516.99,1908.81 1522,1917.5C 1532.12,1935.09 1541.96,1952.76 1551.5,1970.5C 1568.13,1996.12 1583.46,2022.45 1597.5,2049.5C 1599.5,2051.83 1601.5,2054.17 1603.5,2056.5C 1626.41,2097.34 1650.08,2137.67 1674.5,2177.5C 1676.05,2183.44 1675.38,2189.1 1672.5,2194.5C 1660.28,2215.78 1647.94,2236.95 1635.5,2258C 1630.69,2266.13 1625.52,2273.96 1620,2281.5C 1609.55,2300.4 1599.05,2319.4 1588.5,2338.5C 1579.74,2351.59 1571.41,2364.92 1563.5,2378.5C 1562.5,2385.68 1558.5,2388.84 1551.5,2388C 1547.94,2382.37 1544.27,2376.87 1540.5,2371.5C 1530.53,2352.23 1519.53,2333.56 1507.5,2315.5C 1503.01,2307.26 1498.67,2298.93 1494.5,2290.5C 1488.55,2283.22 1483.88,2275.22 1480.5,2266.5C 1466.08,2244.08 1452.08,2221.42 1438.5,2198.5C 1437.65,2195.1 1436.31,2191.93 1434.5,2189C 1429.29,2179.42 1423.46,2170.25 1417,2161.5C 1415.16,2157.47 1413.33,2153.47 1411.5,2149.5C 1394.38,2122.25 1378.05,2094.59 1362.5,2066.5C 1358.21,2059.22 1353.54,2052.22 1348.5,2045.5C 1346.13,2040.15 1343.8,2034.81 1341.5,2029.5C 1338.58,2026 1335.92,2022.33 1333.5,2018.5C 1327.27,2008.47 1321.6,1998.14 1316.5,1987.5C 1305.91,1972.98 1296.91,1957.65 1289.5,1941.5C 1278.75,1923.29 1267.59,1905.29 1256,1887.5C 1252.99,1881.97 1250.16,1876.31 1247.5,1870.5C 1240.83,1861.15 1234.66,1851.48 1229,1841.5C 1228.32,1839.11 1227.49,1836.77 1226.5,1834.5C 1212.7,1813.54 1199.53,1792.2 1187,1770.5C 1179.62,1754.73 1170.95,1739.73 1161,1725.5C 1156.02,1715.28 1150.19,1705.62 1143.5,1696.5C 1138.06,1687.23 1133.06,1677.57 1128.5,1667.5C 1121.73,1658.98 1116.23,1649.64 1112,1639.5C 1101.36,1625.04 1092.36,1609.71 1085,1593.5C 1084.31,1592.64 1083.48,1591.98 1082.5,1591.5C 1065.53,1562.71 1048.87,1533.71 1032.5,1504.5C 1024.62,1490.94 1016.29,1477.61 1007.5,1464.5C 1001.69,1455.21 996.691,1445.55 992.5,1435.5C 988.772,1431.44 985.438,1427.11 982.5,1422.5C 976.435,1410.71 970.102,1399.04 963.5,1387.5C 960.526,1383.68 957.692,1379.68 955,1375.5C 949.928,1365.3 944.428,1355.3 938.5,1345.5C 934.887,1341.74 932.387,1337.41 931,1332.5C 918.667,1311.83 906.333,1291.17 894,1270.5C 893.833,1269.67 893.667,1268.83 893.5,1268C 894.675,1265.68 896.008,1263.51 897.5,1261.5 Z"/>
    </g>
    <g>
        <path style="opacity:0.02" fill="#292929" d="M 1819.5,1520.5 C 1819.39,1521.12 1819.06,1521.62 1818.5,1522C 1783.5,1522.5 1748.5,1522.67 1713.5,1522.5C 1748.69,1521.81 1784.03,1521.15 1819.5,1520.5 Z"/>
    </g>
    <g>
        <path style="opacity:0.047" fill="#131313" d="M 1786.5,1610.5 C 1785.17,1734.86 1785.17,1859.2 1786.5,1983.5C 1785.17,1921.67 1784.5,1859.5 1784.5,1797C 1784.5,1734.5 1785.17,1672.33 1786.5,1610.5 Z"/>
    </g>
    <g>
        <path style="opacity:0.02" fill="#2c2c2c" d="M 1457.5,2423.5 C 1473.01,2422.17 1488.67,2422.17 1504.5,2423.5C 1505.24,2424.18 1505.91,2424.85 1506.5,2425.5C 1490.3,2423.59 1473.97,2422.93 1457.5,2423.5 Z"/>
    </g>
    <g>
        <path style="opacity:0.765" fill="#030303" d="M 1087.5,2422.5 C 1092.18,2422.33 1096.85,2422.5 1101.5,2423C 1102.98,2423.98 1104.31,2425.15 1105.5,2426.5C 1106.83,2451.5 1106.83,2476.5 1105.5,2501.5C 1099.02,2506.64 1092.69,2506.64 1086.5,2501.5C 1086.17,2488.67 1085.83,2475.83 1085.5,2463C 1085.54,2449.35 1086.2,2435.85 1087.5,2422.5 Z"/>
    </g>
    <g>
        <path style="opacity:0.742" fill="#030303" d="M 1122.5,2422.5 C 1126.55,2422.18 1130.55,2422.51 1134.5,2423.5C 1135.5,2424.5 1136.5,2425.5 1137.5,2426.5C 1138.5,2446.49 1138.83,2466.49 1138.5,2486.5C 1150.02,2485.89 1161.35,2486.55 1172.5,2488.5C 1173.83,2492.83 1173.83,2497.17 1172.5,2501.5C 1171,2502.75 1169.33,2503.75 1167.5,2504.5C 1152.83,2505.83 1138.17,2505.83 1123.5,2504.5C 1121.67,2503.75 1120,2502.75 1118.5,2501.5C 1117.33,2476.84 1117.17,2452.17 1118,2427.5C 1119.37,2425.64 1120.87,2423.97 1122.5,2422.5 Z"/>
    </g>
    <g>
        <path style="opacity:0.781" fill="#030303" d="M 1177.5,2422.5 C 1182.18,2422.33 1186.85,2422.5 1191.5,2423C 1193.43,2424.35 1194.77,2426.19 1195.5,2428.5C 1196.5,2436.81 1196.83,2445.14 1196.5,2453.5C 1204.83,2453.5 1213.17,2453.5 1221.5,2453.5C 1221.17,2444.48 1221.5,2435.48 1222.5,2426.5C 1223.5,2425.5 1224.5,2424.5 1225.5,2423.5C 1230.13,2422.34 1234.8,2422.17 1239.5,2423C 1240.03,2423.69 1240.69,2424.19 1241.5,2424.5C 1242.83,2450.17 1242.83,2475.83 1241.5,2501.5C 1235.31,2506.64 1228.98,2506.64 1222.5,2501.5C 1221.5,2491.86 1221.17,2482.19 1221.5,2472.5C 1213.17,2472.5 1204.83,2472.5 1196.5,2472.5C 1196.83,2482.19 1196.5,2491.86 1195.5,2501.5C 1189.02,2506.64 1182.69,2506.64 1176.5,2501.5C 1176.17,2488.67 1175.83,2475.83 1175.5,2463C 1175.54,2449.35 1176.2,2435.85 1177.5,2422.5 Z"/>
    </g>
    <g>
        <path style="opacity:0.788" fill="#050505" d="M 1275.5,2422.5 C 1280.84,2422.33 1286.18,2422.5 1291.5,2423C 1292.33,2423.83 1293.17,2424.67 1294,2425.5C 1296.18,2431.38 1298.18,2437.38 1300,2443.5C 1305.04,2454.24 1310.04,2464.91 1315,2475.5C 1316.79,2483.38 1319.29,2491.05 1322.5,2498.5C 1321.98,2501.02 1320.65,2503.02 1318.5,2504.5C 1311.27,2506.81 1305.27,2505.14 1300.5,2499.5C 1298.59,2495.29 1297.26,2490.96 1296.5,2486.5C 1288.14,2486.17 1279.81,2486.5 1271.5,2487.5C 1268.94,2493.62 1265.61,2499.29 1261.5,2504.5C 1257.17,2505.83 1252.83,2505.83 1248.5,2504.5C 1244.85,2501.57 1243.85,2497.9 1245.5,2493.5C 1255.16,2469.82 1265.16,2446.16 1275.5,2422.5 Z M 1282.5,2455.5 C 1281.45,2459.27 1280.11,2462.94 1278.5,2466.5C 1281.85,2466.67 1285.18,2466.5 1288.5,2466C 1287.33,2464.83 1286.17,2463.67 1285,2462.5C 1285.03,2459.64 1284.2,2457.31 1282.5,2455.5 Z"/>
    </g>
    <g>
        <path style="opacity:0.772" fill="#040404" d="M 1327.5,2422.5 C 1333.54,2422.17 1339.54,2422.5 1345.5,2423.5C 1346.5,2424.5 1347.5,2425.5 1348.5,2426.5C 1355.54,2442.57 1362.54,2458.57 1369.5,2474.5C 1374.07,2462.76 1379.41,2451.42 1385.5,2440.5C 1387,2436.16 1388.5,2431.83 1390,2427.5C 1391.5,2426 1393,2424.5 1394.5,2423C 1399.86,2422.17 1405.2,2422.34 1410.5,2423.5C 1411.82,2436.51 1412.48,2449.68 1412.5,2463C 1412.17,2475.83 1411.83,2488.67 1411.5,2501.5C 1409.71,2504.91 1406.88,2506.24 1403,2505.5C 1399.41,2505.68 1396.58,2504.34 1394.5,2501.5C 1393.83,2490.5 1393.17,2479.5 1392.5,2468.5C 1390.02,2474.11 1387.85,2479.78 1386,2485.5C 1382.92,2490.67 1380.08,2496 1377.5,2501.5C 1371.24,2507.08 1365.57,2506.41 1360.5,2499.5C 1355.85,2489.9 1351.19,2480.23 1346.5,2470.5C 1345.83,2480.83 1345.17,2491.17 1344.5,2501.5C 1338.13,2506.72 1331.79,2506.72 1325.5,2501.5C 1324.33,2476.17 1324.17,2450.84 1325,2425.5C 1326.04,2424.63 1326.88,2423.63 1327.5,2422.5 Z"/>
    </g>
    <g>
        <path style="opacity:0.747" fill="#040404" d="M 1457.5,2423.5 C 1473.97,2422.93 1490.3,2423.59 1506.5,2425.5C 1506.83,2429.88 1506.49,2434.22 1505.5,2438.5C 1504.31,2439.85 1502.98,2441.02 1501.5,2442C 1493.17,2442.5 1484.84,2442.67 1476.5,2442.5C 1476.23,2446.57 1476.57,2450.57 1477.5,2454.5C 1485.83,2455.17 1494.17,2455.83 1502.5,2456.5C 1503.71,2458.79 1504.37,2461.29 1504.5,2464C 1504.37,2466.71 1503.71,2469.21 1502.5,2471.5C 1493.86,2472.5 1485.19,2472.83 1476.5,2472.5C 1476.83,2481.52 1476.5,2490.52 1475.5,2499.5C 1471.45,2504.84 1466.12,2506.67 1459.5,2505C 1458.38,2503.93 1457.38,2502.76 1456.5,2501.5C 1456.17,2488.67 1455.83,2475.83 1455.5,2463C 1455.52,2449.61 1456.19,2436.44 1457.5,2423.5 Z"/>
    </g>
    <g>
        <path style="opacity:0.789" fill="#050505" d="M 1536.5,2422.5 C 1541.74,2421.96 1546.74,2422.63 1551.5,2424.5C 1562.7,2448.79 1572.7,2473.46 1581.5,2498.5C 1580.98,2501.02 1579.65,2503.02 1577.5,2504.5C 1570.27,2506.81 1564.27,2505.14 1559.5,2499.5C 1558.17,2495.5 1556.83,2491.5 1555.5,2487.5C 1546.88,2486.36 1538.22,2486.2 1529.5,2487C 1527.27,2490.84 1525.77,2495 1525,2499.5C 1520.6,2505.28 1514.77,2507.11 1507.5,2505C 1506.67,2504.17 1505.83,2503.33 1505,2502.5C 1504.33,2499.17 1504.33,2495.83 1505,2492.5C 1506.06,2489.97 1506.9,2487.3 1507.5,2484.5C 1508.17,2483.83 1508.83,2483.17 1509.5,2482.5C 1515.23,2468.49 1521.06,2454.49 1527,2440.5C 1527.57,2433.06 1530.74,2427.06 1536.5,2422.5 Z M 1541.5,2455.5 C 1540.86,2459.1 1539.53,2462.43 1537.5,2465.5C 1540.83,2466.83 1544.17,2466.83 1547.5,2465.5C 1545.9,2461.77 1543.9,2458.44 1541.5,2455.5 Z"/>
    </g>
    <g>
        <path style="opacity:0.78" fill="#040404" d="M 1587.5,2422.5 C 1591.88,2422.17 1596.22,2422.51 1600.5,2423.5C 1601.5,2424.5 1602.5,2425.5 1603.5,2426.5C 1604.17,2433.5 1604.83,2440.5 1605.5,2447.5C 1607.31,2445.62 1608.98,2443.62 1610.5,2441.5C 1611.69,2440.57 1613.02,2440.24 1614.5,2440.5C 1617.77,2433.71 1622.44,2427.88 1628.5,2423C 1631.17,2422.83 1633.83,2422.67 1636.5,2422.5C 1639.7,2422.6 1642.7,2423.27 1645.5,2424.5C 1645.83,2425.5 1646.17,2426.5 1646.5,2427.5C 1644.87,2430.48 1643.2,2433.48 1641.5,2436.5C 1633.51,2445.13 1625.51,2453.79 1617.5,2462.5C 1621.94,2465.86 1625.6,2469.86 1628.5,2474.5C 1635.26,2481.25 1641.59,2488.25 1647.5,2495.5C 1648.17,2473.17 1648.83,2450.83 1649.5,2428.5C 1651.23,2423.14 1654.9,2421.14 1660.5,2422.5C 1663.37,2422.62 1666.04,2423.28 1668.5,2424.5C 1669.83,2450.17 1669.83,2475.83 1668.5,2501.5C 1661.59,2507.16 1655.25,2506.49 1649.5,2499.5C 1648.75,2501.33 1647.75,2503 1646.5,2504.5C 1633.1,2507.8 1623.77,2503.14 1618.5,2490.5C 1613.87,2486.87 1609.53,2482.87 1605.5,2478.5C 1604.83,2486.17 1604.17,2493.83 1603.5,2501.5C 1602.5,2502.5 1601.5,2503.5 1600.5,2504.5C 1596.17,2505.83 1591.83,2505.83 1587.5,2504.5C 1586.25,2503 1585.25,2501.33 1584.5,2499.5C 1583.17,2475.83 1583.17,2452.17 1584.5,2428.5C 1585.53,2426.45 1586.53,2424.45 1587.5,2422.5 Z"/>
    </g>
    <g>
        <path style="opacity:0.756" fill="#030303" d="M 1685.5,2422.5 C 1690.18,2422.33 1694.85,2422.5 1699.5,2423C 1700.33,2423.83 1701.17,2424.67 1702,2425.5C 1702.5,2434.83 1702.67,2444.16 1702.5,2453.5C 1711.5,2453.5 1720.5,2453.5 1729.5,2453.5C 1729.17,2444.48 1729.5,2435.48 1730.5,2426.5C 1731.5,2425.5 1732.5,2424.5 1733.5,2423.5C 1738.13,2422.34 1742.8,2422.17 1747.5,2423C 1748.33,2423.83 1749.17,2424.67 1750,2425.5C 1750.83,2450.84 1750.67,2476.17 1749.5,2501.5C 1743.21,2506.72 1736.87,2506.72 1730.5,2501.5C 1729.5,2491.86 1729.17,2482.19 1729.5,2472.5C 1721.17,2472.5 1712.83,2472.5 1704.5,2472.5C 1704.83,2482.19 1704.5,2491.86 1703.5,2501.5C 1697.02,2506.64 1690.69,2506.64 1684.5,2501.5C 1684.17,2488.67 1683.83,2475.83 1683.5,2463C 1683.54,2449.35 1684.2,2435.85 1685.5,2422.5 Z"/>
    </g>
    <g>
        <path style="opacity:0.782" fill="#030303" d="M 1794.5,2422.5 C 1800.07,2421.95 1805.4,2422.62 1810.5,2424.5C 1811.5,2434.14 1811.83,2443.81 1811.5,2453.5C 1820.5,2453.5 1829.5,2453.5 1838.5,2453.5C 1837.86,2443.63 1838.86,2433.97 1841.5,2424.5C 1845.96,2422.31 1850.63,2421.97 1855.5,2423.5C 1856.5,2424.5 1857.5,2425.5 1858.5,2426.5C 1859.83,2451.5 1859.83,2476.5 1858.5,2501.5C 1856.08,2504.43 1852.91,2505.76 1849,2505.5C 1844,2506.27 1840.83,2504.27 1839.5,2499.5C 1838.5,2490.52 1838.17,2481.52 1838.5,2472.5C 1829.5,2472.5 1820.5,2472.5 1811.5,2472.5C 1811.83,2482.19 1811.5,2491.86 1810.5,2501.5C 1804.31,2506.64 1797.98,2506.64 1791.5,2501.5C 1790.17,2476.5 1790.17,2451.5 1791.5,2426.5C 1792.93,2425.41 1793.93,2424.08 1794.5,2422.5 Z"/>
    </g>
    <g>
        <path style="opacity:0.714" fill="#040404" d="M 1871.5,2422.5 C 1875.51,2422.33 1879.51,2422.5 1883.5,2423C 1885.33,2424.17 1886.83,2425.67 1888,2427.5C 1888.83,2451.51 1888.67,2475.51 1887.5,2499.5C 1886.17,2504.27 1883,2506.27 1878,2505.5C 1875.29,2505.37 1872.79,2504.71 1870.5,2503.5C 1870.17,2490.33 1869.83,2477.17 1869.5,2464C 1869.53,2450.01 1870.2,2436.18 1871.5,2422.5 Z"/>
    </g>
    <g>
        <path style="opacity:0.76" fill="#030303" d="M 1904.5,2422.5 C 1909.74,2421.96 1914.74,2422.63 1919.5,2424.5C 1920.5,2445.16 1920.83,2465.82 1920.5,2486.5C 1932.02,2485.89 1943.35,2486.55 1954.5,2488.5C 1955.83,2492.83 1955.83,2497.17 1954.5,2501.5C 1953,2502.75 1951.33,2503.75 1949.5,2504.5C 1934.17,2505.83 1918.83,2505.83 1903.5,2504.5C 1902.5,2503.5 1901.5,2502.5 1900.5,2501.5C 1899.17,2476.5 1899.17,2451.5 1900.5,2426.5C 1901.91,2425.15 1903.24,2423.82 1904.5,2422.5 Z"/>
    </g>
    <g>
        <path style="opacity:0.779" fill="#040404" d="M 1961.5,2422.5 C 1966.18,2422.33 1970.85,2422.5 1975.5,2423C 1977.32,2424.31 1978.98,2425.81 1980.5,2427.5C 1986.96,2441.76 1993.46,2456.1 2000,2470.5C 2000.69,2471.36 2001.52,2472.02 2002.5,2472.5C 2009.11,2457.03 2016.11,2441.7 2023.5,2426.5C 2026.45,2423.49 2030.11,2422.15 2034.5,2422.5C 2038.1,2422.26 2041.44,2422.92 2044.5,2424.5C 2045.83,2450.17 2045.83,2475.83 2044.5,2501.5C 2042.42,2504.34 2039.59,2505.68 2036,2505.5C 2031.37,2506.03 2028.53,2504.03 2027.5,2499.5C 2026.83,2488.5 2026.17,2477.5 2025.5,2466.5C 2020.44,2478.28 2015.11,2489.95 2009.5,2501.5C 2003.24,2507.08 1997.57,2506.41 1992.5,2499.5C 1987.13,2487.93 1981.96,2476.26 1977,2464.5C 1976.83,2476.85 1976.33,2489.18 1975.5,2501.5C 1969.83,2506.83 1964.17,2506.83 1958.5,2501.5C 1957.17,2476.5 1957.17,2451.5 1958.5,2426.5C 1959.93,2425.41 1960.93,2424.08 1961.5,2422.5 Z"/>
    </g>
    <g>
        <path style="opacity:0.737" fill="#070707" d="M 2057.5,2422.5 C 2062.18,2422.33 2066.85,2422.5 2071.5,2423C 2072.33,2423.83 2073.17,2424.67 2074,2425.5C 2074.67,2450.5 2074.67,2475.5 2074,2500.5C 2069.89,2505.28 2064.73,2506.61 2058.5,2504.5C 2057,2502.83 2055.5,2501.17 2054,2499.5C 2053.33,2475.83 2053.33,2452.17 2054,2428.5C 2054.93,2426.31 2056.09,2424.31 2057.5,2422.5 Z"/>
    </g>
    <g>
        <path style="opacity:0.112" fill="#545454" d="M 2459.5,2461.5 C 2458.01,2463.28 2456.01,2463.95 2453.5,2463.5C 2455.21,2462.26 2457.21,2461.59 2459.5,2461.5 Z"/>
    </g>
    <g>
        <path style="opacity:0.004" fill="#bcbcbc" d="M 751.5,2526.5 C 752.5,2526.83 753.167,2527.5 753.5,2528.5C 752.167,2528.5 751.5,2527.83 751.5,2526.5 Z"/>
    </g>
    <g>
        <path style="opacity:0.004" fill="#bcbcbc" d="M 2344.5,2526.5 C 2344.5,2527.83 2343.83,2528.5 2342.5,2528.5C 2342.83,2527.5 2343.5,2526.83 2344.5,2526.5 Z"/>
    </g>
    <g>
        <path style="opacity:0.047" fill="#565656" d="M 838.5,2577.5 C 840.5,2577.5 842.5,2577.5 844.5,2577.5C 844.5,2578.83 844.5,2580.17 844.5,2581.5C 843.596,2580.79 843.263,2579.79 843.5,2578.5C 841.585,2578.78 839.919,2578.45 838.5,2577.5 Z"/>
    </g>
    <g>
        <path style="opacity:0.031" fill="#8a8a8a" d="M 997.5,2669.5 C 999.483,2669.16 1000.82,2669.82 1001.5,2671.5C 1000,2671.01 998.671,2670.34 997.5,2669.5 Z"/>
    </g>
    <g>
        <path style="opacity:0.004" fill="#c2c2c2" d="M 1909.5,2777.5 C 1909.5,2778.83 1908.83,2779.5 1907.5,2779.5C 1907.83,2778.5 1908.5,2777.83 1909.5,2777.5 Z"/>
    </g>
    <g>
        <path style="opacity:0.008" fill="#fefffe" d="M 1319.5,2853.5 C 1320.83,2853.5 1321.5,2854.17 1321.5,2855.5C 1320.5,2855.17 1319.83,2854.5 1319.5,2853.5 Z"/>
    </g>
    <g>
        <path style="opacity:0.004" fill="#c7c7c7" d="M 1349.5,2869.5 C 1350.5,2869.83 1351.17,2870.5 1351.5,2871.5C 1350.17,2871.5 1349.5,2870.83 1349.5,2869.5 Z"/>
    </g>
    <g>
        <path style="opacity:0.137" fill="#565656" d="M 1476.5,2943.5 C 1479.89,2942.97 1481.89,2944.3 1482.5,2947.5C 1480.8,2945.66 1478.8,2944.32 1476.5,2943.5 Z"/>
    </g>
</svg>
