<svg width="512" height="512" viewBox="0 0 512 512" fill="none" xmlns="http://www.w3.org/2000/svg">
<g clip-path="url(#clip0_129_329)">
<path opacity="0.989" fill-rule="evenodd" clip-rule="evenodd" d="M8.5 -0.5C110.833 -0.5 213.167 -0.5 315.5 -0.5C315.5 46.1667 315.5 92.8333 315.5 139.5C312.833 139.5 310.167 139.5 307.5 139.5C305.052 138.527 302.385 138.194 299.5 138.5C299.5 96.8333 299.5 55.1667 299.5 13.5C220.833 13.3333 142.166 13.5 63.5 14C81.8211 19.9407 100.154 25.774 118.5 31.5C156.885 44.7388 195.551 57.4055 234.5 69.5C234.5 99.1667 234.5 128.833 234.5 158.5C234.5 158.833 234.5 159.167 234.5 159.5C234.5 186.167 234.5 212.833 234.5 239.5C234.5 294.833 234.5 350.167 234.5 405.5C234.5 405.833 234.5 406.167 234.5 406.5C234.5 414.833 234.5 423.167 234.5 431.5C234.5 457.833 234.5 484.167 234.5 510.5C159.167 486.167 83.8333 461.833 8.5 437.5C8.5 291.5 8.5 145.5 8.5 -0.5Z" fill="black"/>
<path opacity="0.999" fill-rule="evenodd" clip-rule="evenodd" d="M307.5 139.5C307.5 143.167 307.5 146.833 307.5 150.5C299.35 151.493 291.017 151.826 282.5 151.5C282.5 147.167 282.5 142.833 282.5 138.5C284.833 138.5 287.167 138.5 289.5 138.5C289.5 100.5 289.5 62.5 289.5 24.5C245.336 23.5013 201.003 23.1679 156.5 23.5C156.5 26.1667 156.5 28.8333 156.5 31.5C145.833 31.5 135.167 31.5 124.5 31.5C122.5 31.5 120.5 31.5 118.5 31.5C100.154 25.774 81.8211 19.9407 63.5 14C142.166 13.5 220.833 13.3333 299.5 13.5C299.5 55.1667 299.5 96.8333 299.5 138.5C302.385 138.194 305.052 138.527 307.5 139.5Z" fill="#FCB455"/>
<path fill-rule="evenodd" clip-rule="evenodd" d="M46.4993 24.5C46.166 160.168 46.4993 295.835 47.4993 431.5C51.0121 432.664 54.3455 433.998 57.4993 435.5C56.4993 435.5 55.4993 435.5 54.4993 435.5C44.1679 432.667 34.0013 429.334 23.9993 425.5C23.166 289.165 23.3326 152.832 24.4993 16.5C32.0076 18.9997 39.3409 21.6664 46.4993 24.5Z" fill="#FE7A55"/>
<path fill-rule="evenodd" clip-rule="evenodd" d="M289.5 24.5003C245.5 24.5003 201.5 24.5003 157.5 24.5003C157.802 27.0596 157.468 29.3929 156.5 31.5003C156.5 28.8336 156.5 26.167 156.5 23.5003C201.003 23.1682 245.336 23.5016 289.5 24.5003Z" fill="#291D0E"/>
<path fill-rule="evenodd" clip-rule="evenodd" d="M46.5 24.5C103.882 42.9607 161.216 61.6273 218.5 80.5C219.5 138.496 219.833 196.496 219.5 254.5C205.668 250.779 192.002 246.445 178.5 241.5C177.583 242.127 176.583 242.461 175.5 242.5C163.5 238.833 151.5 235.167 139.5 231.5C139.5 242.5 139.5 253.5 139.5 264.5C133.428 262.977 127.428 261.143 121.5 259C109.704 255.262 100.87 258.762 95 269.5C91.6307 279.726 94.1307 288.226 102.5 295C114.598 299.866 126.931 304.033 139.5 307.5C139.181 317.749 139.514 327.916 140.5 338C159.698 344.677 179.031 350.844 198.5 356.5C198.56 357.043 198.893 357.376 199.5 357.5C200.495 351.872 200.829 346.206 200.5 340.5C206.783 342.372 213.116 344.039 219.5 345.5C219.5 392.833 219.5 440.167 219.5 487.5C165.562 469.965 111.562 452.632 57.5 435.5C54.3462 433.998 51.0128 432.664 47.5 431.5C46.5 295.835 46.1667 160.168 46.5 24.5Z" fill="#FEB555"/>
<path fill-rule="evenodd" clip-rule="evenodd" d="M289.5 24.5C289.5 62.5 289.5 100.5 289.5 138.5C287.167 138.5 284.833 138.5 282.5 138.5C282.167 138.5 281.833 138.5 281.5 138.5C279.167 138.5 276.833 138.5 274.5 138.5C274.5 105.167 274.5 71.8333 274.5 38.5C235.167 38.5 195.833 38.5 156.5 38.5C156.5 36.1667 156.5 33.8333 156.5 31.5C157.468 29.3926 157.802 27.0593 157.5 24.5C201.5 24.5 245.5 24.5 289.5 24.5Z" fill="black"/>
<path fill-rule="evenodd" clip-rule="evenodd" d="M124.5 31.5C135.167 31.5 145.833 31.5 156.5 31.5C156.5 33.8333 156.5 36.1667 156.5 38.5C195.833 38.5 235.167 38.5 274.5 38.5C274.5 71.8333 274.5 105.167 274.5 138.5C276.833 138.5 279.167 138.5 281.5 138.5C281.5 142.5 281.5 146.5 281.5 150.5C273.167 150.5 264.833 150.5 256.5 150.5C256.5 125.167 256.5 99.8333 256.5 74.5C212.162 60.9425 168.162 46.6091 124.5 31.5Z" fill="#55A2FD"/>
<path fill-rule="evenodd" clip-rule="evenodd" d="M118.5 31.5C120.5 31.5 122.5 31.5 124.5 31.5C168.162 46.6091 212.162 60.9425 256.5 74.5C256.5 99.8333 256.5 125.167 256.5 150.5C253.167 150.5 249.833 150.5 246.5 150.5C246.5 153.167 246.5 155.833 246.5 158.5C242.5 158.5 238.5 158.5 234.5 158.5C234.5 128.833 234.5 99.1667 234.5 69.5C195.551 57.4055 156.885 44.7388 118.5 31.5Z" fill="#006CED"/>
<path opacity="0.97" fill-rule="evenodd" clip-rule="evenodd" d="M307.5 247.5C298.833 247.5 290.167 247.5 281.5 247.5C270.346 246.505 259.012 246.172 247.5 246.5C247.5 244.167 247.5 241.833 247.5 239.5C247.5 237.167 247.5 234.833 247.5 232.5C292.5 232.5 337.5 232.5 382.5 232.5C382.333 247.837 382.5 263.17 383 278.5C415.5 252 448 225.5 480.5 199C448 172.5 415.5 146 383 119.5C382.5 135.163 382.333 150.83 382.5 166.5C340.5 166.5 298.5 166.5 256.5 166.5C253.5 166.5 250.5 166.5 247.5 166.5C247.5 163.833 247.5 161.167 247.5 158.5C247.5 156.167 247.5 153.833 247.5 151.5C259.167 151.5 270.833 151.5 282.5 151.5C291.017 151.826 299.35 151.493 307.5 150.5C327.5 150.5 347.5 150.5 367.5 150.5C367.333 129.497 367.5 108.497 368 87.5C413.961 124.296 459.461 161.63 504.5 199.5C459.167 236.5 413.833 273.5 368.5 310.5C367.5 289.511 367.167 268.511 367.5 247.5C347.5 247.5 327.5 247.5 307.5 247.5Z" fill="#030100"/>
<path fill-rule="evenodd" clip-rule="evenodd" d="M194.5 93.5C199.5 93.5 204.5 93.5 209.5 93.5C209.5 98.5 209.5 103.5 209.5 108.5C204.5 108.5 199.5 108.5 194.5 108.5C194.5 103.5 194.5 98.5 194.5 93.5Z" fill="#FFFDFB"/>
<path fill-rule="evenodd" clip-rule="evenodd" d="M194.5 118.5C199.5 118.5 204.5 118.5 209.5 118.5C209.5 123.5 209.5 128.5 209.5 133.5C204.5 133.5 199.5 133.5 194.5 133.5C194.5 128.5 194.5 123.5 194.5 118.5Z" fill="#FFFDFB"/>
<path fill-rule="evenodd" clip-rule="evenodd" d="M382.5 232.5C340.67 231.501 298.67 231.168 256.5 231.5C256.5 209.833 256.5 188.167 256.5 166.5C298.5 166.5 340.5 166.5 382.5 166.5C382.333 150.83 382.5 135.163 383 119.5C415.5 146 448 172.5 480.5 199C448 225.5 415.5 252 383 278.5C382.5 263.17 382.333 247.837 382.5 232.5Z" fill="#FE7855"/>
<path fill-rule="evenodd" clip-rule="evenodd" d="M208.5 143.5C208.5 170.167 208.5 196.833 208.5 223.5C203.833 223.5 199.167 223.5 194.5 223.5C194.5 196.833 194.5 170.167 194.5 143.5C199.167 143.5 203.833 143.5 208.5 143.5Z" fill="#FEFFFE"/>
<path fill-rule="evenodd" clip-rule="evenodd" d="M208.5 143.5C209.498 170.328 209.831 197.328 209.5 224.5C204.305 224.821 199.305 224.487 194.5 223.5C199.167 223.5 203.833 223.5 208.5 223.5C208.5 196.833 208.5 170.167 208.5 143.5Z" fill="#FFEFDA"/>
<path fill-rule="evenodd" clip-rule="evenodd" d="M281.5 138.5C281.833 138.5 282.167 138.5 282.5 138.5C282.5 142.833 282.5 147.167 282.5 151.5C270.833 151.5 259.167 151.5 247.5 151.5C247.5 153.833 247.5 156.167 247.5 158.5C247.167 158.5 246.833 158.5 246.5 158.5C246.5 155.833 246.5 153.167 246.5 150.5C249.833 150.5 253.167 150.5 256.5 150.5C264.833 150.5 273.167 150.5 281.5 150.5C281.5 146.5 281.5 142.5 281.5 138.5Z" fill="#5372AB"/>
<path fill-rule="evenodd" clip-rule="evenodd" d="M234.5 159.5C238.5 159.5 242.5 159.5 246.5 159.5C246.198 162.059 246.532 164.393 247.5 166.5C250.5 166.5 253.5 166.5 256.5 166.5C256.5 188.167 256.5 209.833 256.5 231.5C253.167 231.5 249.833 231.5 246.5 231.5C246.5 234.167 246.5 236.833 246.5 239.5C242.5 239.5 238.5 239.5 234.5 239.5C234.5 212.833 234.5 186.167 234.5 159.5Z" fill="#FE3F61"/>
<path fill-rule="evenodd" clip-rule="evenodd" d="M234.5 159.5C234.5 159.167 234.5 158.833 234.5 158.5C238.5 158.5 242.5 158.5 246.5 158.5C246.833 158.5 247.167 158.5 247.5 158.5C247.5 161.167 247.5 163.833 247.5 166.5C246.532 164.393 246.198 162.059 246.5 159.5C242.5 159.5 238.5 159.5 234.5 159.5Z" fill="#8E314D"/>
<path fill-rule="evenodd" clip-rule="evenodd" d="M446.5 193.5C450.587 196.758 454.254 200.591 457.5 205C453.644 208.357 449.644 211.524 445.5 214.5C442.739 210.65 439.739 206.983 436.5 203.5C439.867 200.16 443.2 196.827 446.5 193.5Z" fill="#FFFAF8"/>
<path fill-rule="evenodd" clip-rule="evenodd" d="M427.5 209.5C431.471 212.476 434.804 216.143 437.5 220.5C434.149 223.848 430.482 226.848 426.5 229.5C423.06 226.138 419.727 222.638 416.5 219C420.359 215.968 424.026 212.802 427.5 209.5Z" fill="#FFFAF9"/>
<path fill-rule="evenodd" clip-rule="evenodd" d="M407.5 225.5C408.239 225.369 408.906 225.536 409.5 226C412.382 229.593 415.382 233.093 418.5 236.5C413.908 240.047 409.408 243.714 405 247.5C401.833 243.667 398.667 239.833 395.5 236C399.693 232.635 403.693 229.135 407.5 225.5Z" fill="#FFFAF9"/>
<path fill-rule="evenodd" clip-rule="evenodd" d="M175.499 242.5C183.34 245.336 191.34 248.003 199.499 250.5C199.831 286.004 199.497 321.337 198.499 356.5C179.03 350.844 159.697 344.677 140.499 338C139.513 327.916 139.18 317.749 139.499 307.5C126.93 304.033 114.597 299.866 102.499 295C94.1302 288.226 91.6302 279.726 94.9995 269.5C100.869 258.762 109.703 255.262 121.499 259C127.427 261.143 133.427 262.977 139.499 264.5C139.499 253.5 139.499 242.5 139.499 231.5C151.499 235.167 163.499 238.833 175.499 242.5Z" fill="#050404"/>
<path fill-rule="evenodd" clip-rule="evenodd" d="M256.5 231.5C298.67 231.168 340.67 231.501 382.5 232.5C337.5 232.5 292.5 232.5 247.5 232.5C247.5 234.833 247.5 237.167 247.5 239.5C247.167 239.5 246.833 239.5 246.5 239.5C246.5 236.833 246.5 234.167 246.5 231.5C249.833 231.5 253.167 231.5 256.5 231.5Z" fill="#AD4E3B"/>
<path fill-rule="evenodd" clip-rule="evenodd" d="M234.5 239.5C238.5 239.5 242.5 239.5 246.5 239.5C246.5 242.167 246.5 244.833 246.5 247.5C249.833 247.5 253.167 247.5 256.5 247.5C256.5 262.833 256.5 278.167 256.5 293.5C253.941 293.198 251.607 293.532 249.5 294.5C249.5 299.5 249.5 304.5 249.5 309.5C251.833 309.5 254.167 309.5 256.5 309.5C256.5 312.5 256.5 315.5 256.5 318.5C253.941 318.198 251.607 318.532 249.5 319.5C249.5 324.5 249.5 329.5 249.5 334.5C251.833 334.5 254.167 334.5 256.5 334.5C256.5 337.5 256.5 340.5 256.5 343.5C253.941 343.198 251.607 343.532 249.5 344.5C249.5 359.5 249.5 374.5 249.5 389.5C251.833 389.5 254.167 389.5 256.5 389.5C256.5 392.5 256.5 395.5 256.5 398.5C253.5 398.5 250.5 398.5 247.5 398.5C247.5 400.833 247.5 403.167 247.5 405.5C243.167 405.5 238.833 405.5 234.5 405.5C234.5 350.167 234.5 294.833 234.5 239.5Z" fill="#026DEF"/>
<path fill-rule="evenodd" clip-rule="evenodd" d="M246.5 239.5C246.833 239.5 247.167 239.5 247.5 239.5C247.5 241.833 247.5 244.167 247.5 246.5C259.012 246.172 270.346 246.505 281.5 247.5C273.167 247.5 264.833 247.5 256.5 247.5C253.167 247.5 249.833 247.5 246.5 247.5C246.5 244.833 246.5 242.167 246.5 239.5Z" fill="#152F50"/>
<path fill-rule="evenodd" clip-rule="evenodd" d="M256.5 247.5C264.833 247.5 273.167 247.5 281.5 247.5C281.5 251.5 281.5 255.5 281.5 259.5C279.167 259.5 276.833 259.5 274.5 259.5C274.5 305.833 274.5 352.167 274.5 398.5C268.5 398.5 262.5 398.5 256.5 398.5C256.5 395.5 256.5 392.5 256.5 389.5C259.167 389.5 261.833 389.5 264.5 389.5C264.5 374.5 264.5 359.5 264.5 344.5C259.5 344.5 254.5 344.5 249.5 344.5C251.607 343.532 253.941 343.198 256.5 343.5C256.5 340.5 256.5 337.5 256.5 334.5C259.167 334.5 261.833 334.5 264.5 334.5C264.5 329.5 264.5 324.5 264.5 319.5C259.5 319.5 254.5 319.5 249.5 319.5C251.607 318.532 253.941 318.198 256.5 318.5C256.5 315.5 256.5 312.5 256.5 309.5C259.167 309.5 261.833 309.5 264.5 309.5C264.5 304.5 264.5 299.5 264.5 294.5C259.5 294.5 254.5 294.5 249.5 294.5C251.607 293.532 253.941 293.198 256.5 293.5C256.5 278.167 256.5 262.833 256.5 247.5Z" fill="#56A3FD"/>
<path opacity="0.996" fill-rule="evenodd" clip-rule="evenodd" d="M281.5 247.5C290.167 247.5 298.833 247.5 307.5 247.5C307.5 251.5 307.5 255.5 307.5 259.5C304.833 259.5 302.167 259.5 299.5 259.5C299.5 314.167 299.5 368.833 299.5 423.5C281.833 423.5 264.167 423.5 246.5 423.5C246.5 426.167 246.5 428.833 246.5 431.5C242.5 431.5 238.5 431.5 234.5 431.5C234.5 423.167 234.5 414.833 234.5 406.5C238.5 406.5 242.5 406.5 246.5 406.5C246.5 408.833 246.5 411.167 246.5 413.5C260.833 413.5 275.167 413.5 289.5 413.5C289.5 362.167 289.5 310.833 289.5 259.5C286.833 259.5 284.167 259.5 281.5 259.5C281.5 255.5 281.5 251.5 281.5 247.5Z" fill="#FEB555"/>
<path fill-rule="evenodd" clip-rule="evenodd" d="M219.5 254.5C219.5 284.833 219.5 315.167 219.5 345.5C213.116 344.039 206.783 342.372 200.5 340.5C200.831 310.329 200.498 280.329 199.5 250.5C191.341 248.003 183.341 245.336 175.5 242.5C176.583 242.461 177.583 242.127 178.5 241.5C192.002 246.445 205.668 250.779 219.5 254.5Z" fill="#FD7855"/>
<path fill-rule="evenodd" clip-rule="evenodd" d="M177.499 259.5C177.171 264.875 177.504 270.208 178.499 275.5C180.449 276.372 182.449 277.039 184.499 277.5C184.499 286.5 184.499 295.5 184.499 304.5C182.499 304.167 180.499 303.833 178.499 303.5C182.949 292.591 180.615 283.424 171.499 276C166.279 273.695 160.946 271.695 155.499 270C154.19 263.889 154.19 257.722 155.499 251.5C162.784 254.372 170.118 257.039 177.499 259.5Z" fill="#BAD7FA"/>
<path fill-rule="evenodd" clip-rule="evenodd" d="M177.501 259.5C179.551 259.961 181.551 260.628 183.501 261.5C184.496 266.792 184.829 272.125 184.501 277.5C182.451 277.039 180.451 276.372 178.501 275.5C177.506 270.208 177.173 264.875 177.501 259.5Z" fill="#FEFEFE"/>
<path opacity="0.952" fill-rule="evenodd" clip-rule="evenodd" d="M307.5 259.5C310.167 259.5 312.833 259.5 315.5 259.5C315.5 319.167 315.5 378.833 315.5 438.5C292.5 438.5 269.5 438.5 246.5 438.5C246.5 436.167 246.5 433.833 246.5 431.5C246.5 428.833 246.5 426.167 246.5 423.5C264.167 423.5 281.833 423.5 299.5 423.5C299.5 368.833 299.5 314.167 299.5 259.5C302.167 259.5 304.833 259.5 307.5 259.5Z" fill="#010100"/>
<path fill-rule="evenodd" clip-rule="evenodd" d="M281.5 259.5C284.167 259.5 286.833 259.5 289.5 259.5C289.5 310.833 289.5 362.167 289.5 413.5C275.167 413.5 260.833 413.5 246.5 413.5C246.5 411.167 246.5 408.833 246.5 406.5C242.5 406.5 238.5 406.5 234.5 406.5C234.5 406.167 234.5 405.833 234.5 405.5C238.833 405.5 243.167 405.5 247.5 405.5C247.5 403.167 247.5 400.833 247.5 398.5C250.5 398.5 253.5 398.5 256.5 398.5C262.5 398.5 268.5 398.5 274.5 398.5C274.5 352.167 274.5 305.833 274.5 259.5C276.833 259.5 279.167 259.5 281.5 259.5Z" fill="#020201"/>
<path fill-rule="evenodd" clip-rule="evenodd" d="M131.5 278.5C131.047 282.426 132.38 285.592 135.5 288C144.196 292.065 153.196 295.232 162.5 297.5C160.712 298.622 158.712 298.789 156.5 298C141.5 293 126.5 288 111.5 283C107.5 279.667 107.5 276.333 111.5 273C118.561 273.522 125.227 275.355 131.5 278.5Z" fill="#B6D3F5"/>
<path fill-rule="evenodd" clip-rule="evenodd" d="M131.5 278.5C141.845 281.559 152.178 284.726 162.5 288C166.473 291.294 166.473 294.46 162.5 297.5C153.196 295.232 144.196 292.065 135.5 288C132.38 285.592 131.047 282.426 131.5 278.5Z" fill="#FAFBFC"/>
<path fill-rule="evenodd" clip-rule="evenodd" d="M249.5 294.5C254.5 294.5 259.5 294.5 264.5 294.5C264.5 299.5 264.5 304.5 264.5 309.5C261.833 309.5 259.167 309.5 256.5 309.5C254.167 309.5 251.833 309.5 249.5 309.5C249.5 304.5 249.5 299.5 249.5 294.5Z" fill="#F9FBFE"/>
<path fill-rule="evenodd" clip-rule="evenodd" d="M178.499 303.5C180.499 303.833 182.499 304.167 184.499 304.5C184.499 314.5 184.499 324.5 184.499 334.5C182.449 334.039 180.449 333.372 178.499 332.5C177.501 323.19 177.167 313.857 177.499 304.5C177.499 303.833 177.832 303.5 178.499 303.5Z" fill="#FEFEFE"/>
<path fill-rule="evenodd" clip-rule="evenodd" d="M177.5 304.5C177.168 313.857 177.502 323.19 178.5 332.5C180.45 333.372 182.45 334.039 184.5 334.5C184.631 335.376 184.298 336.043 183.5 336.5C173.881 333.293 164.214 330.293 154.5 327.5C154.5 322.833 154.5 318.167 154.5 313.5C163.92 314.589 171.586 311.589 177.5 304.5Z" fill="#B9D5F8"/>
<path fill-rule="evenodd" clip-rule="evenodd" d="M249.5 319.5C254.5 319.5 259.5 319.5 264.5 319.5C264.5 324.5 264.5 329.5 264.5 334.5C261.833 334.5 259.167 334.5 256.5 334.5C254.167 334.5 251.833 334.5 249.5 334.5C249.5 329.5 249.5 324.5 249.5 319.5Z" fill="#F9FBFE"/>
<path fill-rule="evenodd" clip-rule="evenodd" d="M199.5 250.5C200.498 280.329 200.831 310.329 200.5 340.5C200.829 346.206 200.495 351.872 199.5 357.5C198.893 357.376 198.56 357.043 198.5 356.5C199.498 321.337 199.832 286.004 199.5 250.5Z" fill="#A66437"/>
<path fill-rule="evenodd" clip-rule="evenodd" d="M249.5 344.5C254.5 344.5 259.5 344.5 264.5 344.5C264.5 359.5 264.5 374.5 264.5 389.5C261.833 389.5 259.167 389.5 256.5 389.5C254.167 389.5 251.833 389.5 249.5 389.5C249.5 374.5 249.5 359.5 249.5 344.5Z" fill="#FCFDFE"/>
<path fill-rule="evenodd" clip-rule="evenodd" d="M54.5 435.5C55.5 435.5 56.5 435.5 57.5 435.5C111.562 452.632 165.562 469.965 219.5 487.5C219.53 488.497 219.03 489.164 218 489.5C163.355 471.562 108.855 453.562 54.5 435.5Z" fill="#E66F4D"/>
</g>
<defs>
<clipPath id="clip0_129_329">
<rect width="512" height="512" fill="white"/>
</clipPath>
</defs>
</svg>
