<svg xmlns="http://www.w3.org/2000/svg" version="1.1" width="512px" height="512px" style="shape-rendering:geometricPrecision; text-rendering:geometricPrecision; image-rendering:optimizeQuality; fill-rule:evenodd; clip-rule:evenodd"
    xmlns:xlink="http://www.w3.org/1999/xlink">
    <g>
        <path style="opacity:0.982" fill="#bdc2c6" d="M 105.5,74.5 C 105.868,92.5785 99.8677,108.079 87.5,121C 81.3308,125.959 74.3308,127.959 66.5,127C 59.4948,120.749 59.8281,115.083 67.5,110C 72.8351,110.082 77.0018,107.916 80,103.5C 85.1606,94.5242 87.6606,84.8576 87.5,74.5C 87.5308,62.0837 83.5308,51.2504 75.5,42C 68.7818,38.7524 63.6151,40.5858 60,47.5C 55.4674,55.9671 52.9674,64.9671 52.5,74.5C 46.5,74.5 40.5,74.5 34.5,74.5C 33.6924,55.0524 40.3591,38.8858 54.5,26C 72.5465,17.0158 86.7131,21.1825 97,38.5C 103.294,49.6745 106.127,61.6745 105.5,74.5 Z M 87.5,74.5 C 75.8333,74.5 64.1667,74.5 52.5,74.5C 52.9674,64.9671 55.4674,55.9671 60,47.5C 63.6151,40.5858 68.7818,38.7524 75.5,42C 83.5308,51.2504 87.5308,62.0837 87.5,74.5 Z"/>
    </g>
    <g>
        <path style="opacity:0.983" fill="#bdc2c6" d="M 203.5,74.5 C 202.556,89.2503 198.056,102.917 190,115.5C 183.342,124.385 174.509,128.218 163.5,127C 157.324,121.969 156.991,116.636 162.5,111C 168.499,110.75 173.333,108.25 177,103.5C 182.165,94.505 184.665,84.8383 184.5,74.5C 184.967,61.3912 180.634,50.2245 171.5,41C 166.575,39.0261 162.408,40.1927 159,44.5C 152.824,53.5321 149.99,63.5321 150.5,74.5C 144.167,74.5 137.833,74.5 131.5,74.5C 130.675,55.1197 137.341,38.9531 151.5,26C 168.461,17.2102 182.294,20.7102 193,36.5C 199.626,48.3426 203.126,61.0092 203.5,74.5 Z M 184.5,74.5 C 173.167,74.5 161.833,74.5 150.5,74.5C 149.99,63.5321 152.824,53.5321 159,44.5C 162.408,40.1927 166.575,39.0261 171.5,41C 180.634,50.2245 184.967,61.3912 184.5,74.5 Z"/>
    </g>
    <g>
        <path style="opacity:0.98" fill="#bdc2c6" d="M 300.5,74.5 C 300.045,88.8878 295.879,102.221 288,114.5C 281.478,123.679 272.645,127.845 261.5,127C 254.412,122.47 253.745,117.137 259.5,111C 267.011,110.661 272.511,107.161 276,100.5C 280.052,92.2941 281.885,83.6274 281.5,74.5C 281.967,61.3912 277.634,50.2245 268.5,41C 264.114,38.9262 260.281,39.7595 257,43.5C 250.116,52.654 246.95,62.9874 247.5,74.5C 241.167,74.5 234.833,74.5 228.5,74.5C 228.057,55.3125 234.724,39.1458 248.5,26C 263.695,17.999 276.861,20.499 288,33.5C 296.079,45.9074 300.245,59.574 300.5,74.5 Z M 281.5,74.5 C 270.167,74.5 258.833,74.5 247.5,74.5C 246.95,62.9874 250.116,52.654 257,43.5C 260.281,39.7595 264.114,38.9262 268.5,41C 277.634,50.2245 281.967,61.3912 281.5,74.5 Z"/>
    </g>
    <g>
        <path style="opacity:0.998" fill="#fe5364" d="M 34.5,74.5 C 40.5,74.5 46.5,74.5 52.5,74.5C 64.1667,74.5 75.8333,74.5 87.5,74.5C 87.6606,84.8576 85.1606,94.5242 80,103.5C 77.0018,107.916 72.8351,110.082 67.5,110C 59.8281,115.083 59.4948,120.749 66.5,127C 74.3308,127.959 81.3308,125.959 87.5,121C 99.8677,108.079 105.868,92.5785 105.5,74.5C 114.167,74.5 122.833,74.5 131.5,74.5C 137.833,74.5 144.167,74.5 150.5,74.5C 161.833,74.5 173.167,74.5 184.5,74.5C 184.665,84.8383 182.165,94.505 177,103.5C 173.333,108.25 168.499,110.75 162.5,111C 156.991,116.636 157.324,121.969 163.5,127C 174.509,128.218 183.342,124.385 190,115.5C 198.056,102.917 202.556,89.2503 203.5,74.5C 211.833,74.5 220.167,74.5 228.5,74.5C 234.833,74.5 241.167,74.5 247.5,74.5C 258.833,74.5 270.167,74.5 281.5,74.5C 281.885,83.6274 280.052,92.2941 276,100.5C 272.511,107.161 267.011,110.661 259.5,111C 253.745,117.137 254.412,122.47 261.5,127C 272.645,127.845 281.478,123.679 288,114.5C 295.879,102.221 300.045,88.8878 300.5,74.5C 319.553,75.7145 331.053,85.7145 335,104.5C 335.5,118.163 335.667,131.829 335.5,145.5C 334.511,150.975 334.178,156.642 334.5,162.5C 222.833,162.5 111.167,162.5 -0.5,162.5C -0.5,142.167 -0.5,121.833 -0.5,101.5C 4.94489,84.5939 16.6116,75.5939 34.5,74.5 Z"/>
    </g>
    <g>
        <path style="opacity:0.991" fill="#fe5364" d="M 511.5,166.5 C 511.5,171.5 511.5,176.5 511.5,181.5C 509.559,187.189 506.226,192.023 501.5,196C 484.286,208.054 466.953,219.888 449.5,231.5C 432.734,206.954 415.734,182.621 398.5,158.5C 415.654,146.196 432.987,134.03 450.5,122C 463.039,116.192 474.539,117.692 485,126.5C 494.512,139.488 503.345,152.821 511.5,166.5 Z"/>
    </g>
    <g>
        <path style="opacity:0.994" fill="#bcc2c6" d="M 398.5,158.5 C 415.734,182.621 432.734,206.954 449.5,231.5C 437.445,240.217 425.112,248.551 412.5,256.5C 396.078,231.985 379.411,207.651 362.5,183.5C 374.114,174.686 386.114,166.353 398.5,158.5 Z"/>
    </g>
    <g>
        <path style="opacity:1" fill="#f8b8a6" d="M 335.5,145.5 C 335.5,151.5 335.5,157.5 335.5,163.5C 223.5,163.5 111.5,163.5 -0.5,163.5C -0.5,163.167 -0.5,162.833 -0.5,162.5C 111.167,162.5 222.833,162.5 334.5,162.5C 334.178,156.642 334.511,150.975 335.5,145.5 Z"/>
    </g>
    <g>
        <path style="opacity:0.998" fill="#f4eec9" d="M -0.5,163.5 C 111.5,163.5 223.5,163.5 335.5,163.5C 335.5,176.167 335.5,188.833 335.5,201.5C 286.675,236.08 237.675,270.413 188.5,304.5C 177.599,319.956 166.932,335.623 156.5,351.5C 147.863,363.655 139.363,375.988 131,388.5C 129.803,395.637 132.803,399.637 140,400.5C 154.658,397.044 169.158,393.377 183.5,389.5C 200.515,385.83 217.515,381.997 234.5,378C 235.942,377.623 236.942,376.79 237.5,375.5C 238.789,376.501 240.122,376.334 241.5,375C 272.717,353.233 304.051,331.733 335.5,310.5C 335.667,365.834 335.5,421.168 335,476.5C 332.921,482.247 329.088,486.414 323.5,489C 219.5,489.667 115.5,489.667 11.5,489C 5.64984,486.981 1.64984,483.148 -0.5,477.5C -0.5,372.833 -0.5,268.167 -0.5,163.5 Z"/>
    </g>
    <g>
        <path style="opacity:0.998" fill="#3b97d2" d="M 362.5,183.5 C 379.411,207.651 396.078,231.985 412.5,256.5C 387.046,274.734 361.379,292.734 335.5,310.5C 304.051,331.733 272.717,353.233 241.5,375C 240.122,376.334 238.789,376.501 237.5,375.5C 221.55,351.553 205.216,327.886 188.5,304.5C 237.675,270.413 286.675,236.08 335.5,201.5C 344.5,195.5 353.5,189.5 362.5,183.5 Z"/>
    </g>
    <g>
        <path style="opacity:1" fill="#ccb393" d="M 50.5,206.5 C 119.167,206.333 187.834,206.5 256.5,207C 262.612,210.293 264.112,215.127 261,221.5C 260.097,222.701 258.931,223.535 257.5,224C 187.833,224.667 118.167,224.667 48.5,224C 41.394,217.155 42.0607,211.321 50.5,206.5 Z"/>
    </g>
    <g>
        <path style="opacity:1" fill="#cbb292" d="M 48.5,251.5 C 97.1678,251.333 145.834,251.5 194.5,252C 201.394,257.841 201.061,263.175 193.5,268C 145.167,268.667 96.8333,268.667 48.5,268C 41.8557,262.375 41.8557,256.875 48.5,251.5 Z"/>
    </g>
    <g>
        <path style="opacity:1" fill="#cbb292" d="M 48.5,295.5 C 82.1683,295.333 115.835,295.5 149.5,296C 154.648,299.334 155.814,303.834 153,309.5C 152.097,310.701 150.931,311.535 149.5,312C 115.833,312.667 82.1667,312.667 48.5,312C 41.8987,306.504 41.8987,301.004 48.5,295.5 Z"/>
    </g>
    <g>
        <path style="opacity:1" fill="#fcd6ad" d="M 188.5,304.5 C 205.216,327.886 221.55,351.553 237.5,375.5C 236.942,376.79 235.942,377.623 234.5,378C 217.515,381.997 200.515,385.83 183.5,389.5C 174.5,376.833 165.5,364.167 156.5,351.5C 166.932,335.623 177.599,319.956 188.5,304.5 Z"/>
    </g>
    <g>
        <path style="opacity:1" fill="#ccb393" d="M 48.5,339.5 C 71.8357,339.333 95.169,339.5 118.5,340C 125.05,343.438 126.216,348.271 122,354.5C 120.581,355.46 119.081,356.293 117.5,357C 95.1667,357.667 72.8333,357.667 50.5,357C 42.0877,352.095 41.421,346.262 48.5,339.5 Z"/>
    </g>
    <g>
        <path style="opacity:1" fill="#48505e" d="M 156.5,351.5 C 165.5,364.167 174.5,376.833 183.5,389.5C 169.158,393.377 154.658,397.044 140,400.5C 132.803,399.637 129.803,395.637 131,388.5C 139.363,375.988 147.863,363.655 156.5,351.5 Z"/>
    </g>
    <g>
        <path style="opacity:1" fill="#cbb393" d="M 49.5,383.5 C 65.5035,383.333 81.5035,383.5 97.5,384C 100.232,384.398 102.065,385.898 103,388.5C 104.922,394.383 103.089,398.549 97.5,401C 81.5,401.667 65.5,401.667 49.5,401C 41.542,395.086 41.542,389.252 49.5,383.5 Z"/>
    </g>
    <g>
        <path style="opacity:1" fill="#cbb392" d="M 286.5,410.5 C 289.187,410.336 291.854,410.503 294.5,411C 296.667,411.833 298.167,413.333 299,415.5C 299.957,427.264 299.623,438.93 298,450.5C 296.59,451.787 295.09,452.954 293.5,454C 282.833,454.667 272.167,454.667 261.5,454C 254.116,448.711 253.783,443.044 260.5,437C 267.826,436.5 275.159,436.334 282.5,436.5C 282.334,429.159 282.5,421.826 283,414.5C 284.376,413.295 285.542,411.962 286.5,410.5 Z"/>
    </g>
    <g>
        <path style="opacity:1" fill="#cbb393" d="M 49.5,427.5 C 104.168,427.333 158.834,427.5 213.5,428C 220.764,430.961 222.264,435.794 218,442.5C 216.581,443.46 215.081,444.293 213.5,445C 158.833,445.667 104.167,445.667 49.5,445C 41.5548,439.17 41.5548,433.336 49.5,427.5 Z"/>
    </g>
</svg>
