<svg width="512" height="512" viewBox="0 0 512 512" fill="none" xmlns="http://www.w3.org/2000/svg">
<path opacity="0.988" fill-rule="evenodd" clip-rule="evenodd" d="M129.499 9.5C177.167 9.33334 224.833 9.50001 272.499 10C276.427 11.5933 278.927 14.4267 279.999 18.5C280.498 23.8229 280.665 29.1563 280.499 34.5C309.834 34.3334 339.168 34.5 368.499 35C379.144 36.9794 385.977 43.146 388.999 53.5C389.499 118.499 389.666 183.499 389.499 248.5C394.35 248.37 399.017 249.204 403.499 251C405.809 252.637 407.309 254.804 407.999 257.5C408.426 263.527 409.092 269.527 409.999 275.5C416.166 277.778 422.166 280.445 427.999 283.5C432.243 278.585 437.076 274.419 442.499 271C446.624 270.146 450.624 270.48 454.499 272C462.364 279.53 469.864 287.364 476.999 295.5C477.853 299.625 477.519 303.625 475.999 307.5C472.534 311.967 468.701 316.133 464.499 320C467.579 325.57 470.079 331.403 471.999 337.5C479.116 338.804 486.282 339.97 493.499 341C495.377 342.543 496.877 344.376 497.999 346.5C499.999 358.5 499.999 370.5 497.999 382.5C496.499 385.333 494.332 387.5 491.499 389C484.92 389.607 478.42 390.44 471.999 391.5C470.079 397.597 467.579 403.43 464.499 409C468.701 412.867 472.534 417.033 475.999 421.5C477.519 425.375 477.853 429.375 476.999 433.5C469.864 441.636 462.364 449.47 454.499 457C450.577 459.327 446.577 459.66 442.499 458C437.331 454.325 432.331 450.492 427.499 446.5C422.033 449.156 416.367 451.322 410.499 453C409.273 460.129 408.107 467.296 406.999 474.5C402.209 479.267 396.376 481.6 389.499 481.5C386.767 491.063 380.767 497.563 371.499 501C257.832 501.667 144.166 501.667 30.4991 501C19.4722 496.975 13.3056 489.142 11.9991 477.5C11.0087 336.138 11.3421 194.804 12.9991 53.5C16.0468 43.1181 22.8801 36.9515 33.4991 35C62.8305 34.5 92.1639 34.3334 121.499 34.5C121.333 29.1563 121.5 23.8229 121.999 18.5C123.112 14.2341 125.612 11.2341 129.499 9.5Z" fill="#232224"/>
<path fill-rule="evenodd" clip-rule="evenodd" d="M133.5 21.5C178.167 21.5 222.833 21.5 267.5 21.5C267.5 34.5 267.5 47.5 267.5 60.5C222.833 60.5 178.167 60.5 133.5 60.5C133.5 47.5 133.5 34.5 133.5 21.5Z" fill="#FEC56B"/>
<path fill-rule="evenodd" clip-rule="evenodd" d="M35.5 47.4999C64.3285 46.5019 93.3285 46.1685 122.5 46.4999C122.5 51.4999 122.5 56.4999 122.5 61.4999C121.514 57.0299 121.181 52.3632 121.5 47.4999C92.8333 47.4999 64.1667 47.4999 35.5 47.4999Z" fill="#868283"/>
<path fill-rule="evenodd" clip-rule="evenodd" d="M366.5 47.4999C337.833 47.4999 309.167 47.4999 280.5 47.4999C280.819 52.3632 280.486 57.0299 279.5 61.4999C279.5 56.4999 279.5 51.4999 279.5 46.4999C308.671 46.1685 337.671 46.5019 366.5 47.4999Z" fill="#8A8587"/>
<path fill-rule="evenodd" clip-rule="evenodd" d="M35.5 47.5C64.1667 47.5 92.8333 47.5 121.5 47.5C121.181 52.3633 121.514 57.03 122.5 61.5C122.876 66.7555 125.543 70.2555 130.5 72C177.167 72.6667 223.833 72.6667 270.5 72C275.718 70.3948 278.718 66.8948 279.5 61.5C280.486 57.03 280.819 52.3633 280.5 47.5C309.167 47.5 337.833 47.5 366.5 47.5C371.68 48.5118 375.18 51.5118 377 56.5C377.5 120.832 377.667 185.166 377.5 249.5C370.356 247.992 364.523 249.992 360 255.5C358.575 262.385 358.075 269.385 358.5 276.5C351.853 277.991 345.519 280.324 339.5 283.5C334.229 278.858 328.563 274.691 322.5 271C318.793 270.004 315.459 270.67 312.5 273C304.635 280.53 297.135 288.364 290 296.5C289.299 299.928 289.632 303.262 291 306.5C294.847 311.011 298.68 315.511 302.5 320C299.439 326.278 297.106 332.778 295.5 339.5C289.491 339.334 283.491 339.501 277.5 340C272.473 341.853 269.473 345.353 268.5 350.5C267.523 353.287 267.19 356.287 267.5 359.5C240.995 359.169 214.661 359.502 188.5 360.5C183.224 364.302 183.224 368.135 188.5 372C215.165 372.5 241.831 372.667 268.5 372.5C267.476 378.941 269.476 384.108 274.5 388C281.385 389.425 288.385 389.925 295.5 389.5C297.116 396.237 299.45 402.737 302.5 409C298.68 413.489 294.847 417.989 291 422.5C289.087 426.471 289.087 430.471 291 434.5C298.219 443.353 306.386 451.186 315.5 458C318.928 458.701 322.262 458.368 325.5 457C330.011 453.153 334.511 449.32 339 445.5C345.21 448.736 351.71 451.069 358.5 452.5C358.161 459.574 358.661 466.574 360 473.5C364.124 478.953 369.624 480.953 376.5 479.5C375.017 484.481 371.684 487.647 366.5 489C255.833 489.667 145.167 489.667 34.5 489C29.5995 487.098 26.4329 483.598 25 478.5C24.3333 337.833 24.3333 197.167 25 56.5C26.8534 51.4734 30.3534 48.4734 35.5 47.5Z" fill="#FAF2F2"/>
<path fill-rule="evenodd" clip-rule="evenodd" d="M259.5 89.5C281.169 89.3334 302.836 89.5 324.5 90C325.931 90.4652 327.097 91.2986 328 92.5C328.667 129.167 328.667 165.833 328 202.5C327.535 203.931 326.701 205.097 325.5 206C242.5 206.667 159.5 206.667 76.5 206C75.6667 205.167 74.8333 204.333 74 203.5C73.3333 192.167 73.3333 180.833 74 169.5C74.8333 168.667 75.6667 167.833 76.5 167C95.8305 166.5 115.164 166.333 134.5 166.5C134.334 161.156 134.501 155.823 135 150.5C135.833 149.667 136.667 148.833 137.5 148C156.497 147.5 175.497 147.333 194.5 147.5C194.334 139.493 194.5 131.493 195 123.5C195.465 122.069 196.299 120.903 197.5 120C216.83 119.5 236.164 119.333 255.5 119.5C255.334 110.827 255.5 102.16 256 93.5C256.69 91.6498 257.856 90.3164 259.5 89.5Z" fill="#232225"/>
<path fill-rule="evenodd" clip-rule="evenodd" d="M267.5 101.5C283.833 101.5 300.167 101.5 316.5 101.5C316.5 132.5 316.5 163.5 316.5 194.5C300.167 194.5 283.833 194.5 267.5 194.5C267.5 163.5 267.5 132.5 267.5 101.5Z" fill="#2EB0D3"/>
<path fill-rule="evenodd" clip-rule="evenodd" d="M255.5 131.5C239.5 131.5 223.5 131.5 207.5 131.5C207.5 152.5 207.5 173.5 207.5 194.5C223.5 194.5 239.5 194.5 255.5 194.5C239.342 195.496 223.009 195.83 206.5 195.5C206.5 173.833 206.5 152.167 206.5 130.5C223.009 130.17 239.342 130.504 255.5 131.5Z" fill="#157D5D"/>
<path fill-rule="evenodd" clip-rule="evenodd" d="M255.5 131.5C255.5 152.5 255.5 173.5 255.5 194.5C239.5 194.5 223.5 194.5 207.5 194.5C207.5 173.5 207.5 152.5 207.5 131.5C223.5 131.5 239.5 131.5 255.5 131.5Z" fill="#05E39B"/>
<path fill-rule="evenodd" clip-rule="evenodd" d="M146.5 159.5C162.5 159.5 178.5 159.5 194.5 159.5C194.5 171.167 194.5 182.833 194.5 194.5C178.5 194.5 162.5 194.5 146.5 194.5C146.5 182.833 146.5 171.167 146.5 159.5Z" fill="#FEE176"/>
<path fill-rule="evenodd" clip-rule="evenodd" d="M133.5 178.5C133.5 183.833 133.5 189.167 133.5 194.5C117.5 194.5 101.5 194.5 85.5 194.5C85.5 189.167 85.5 183.833 85.5 178.5C101.5 178.5 117.5 178.5 133.5 178.5Z" fill="#FE5A59"/>
<path fill-rule="evenodd" clip-rule="evenodd" d="M133.5 178.5C134.489 183.975 134.822 189.642 134.5 195.5C117.991 195.83 101.658 195.496 85.5 194.5C101.5 194.5 117.5 194.5 133.5 194.5C133.5 189.167 133.5 183.833 133.5 178.5Z" fill="#783739"/>
<path fill-rule="evenodd" clip-rule="evenodd" d="M77.5 230.5C102.169 230.333 126.836 230.5 151.5 231C154.735 232.36 157.235 234.527 159 237.5C159.667 262.833 159.667 288.167 159 313.5C158.31 316.196 156.81 318.363 154.5 320C128.254 321.648 101.92 321.982 75.5 321C72.2716 319.437 70.1049 316.937 69 313.5C68.3333 288.833 68.3333 264.167 69 239.5C70.6878 235.315 73.5212 232.315 77.5 230.5Z" fill="#242427"/>
<path fill-rule="evenodd" clip-rule="evenodd" d="M144.5 244.5C123.673 243.503 102.673 243.169 81.5 243.5C81.5 265.5 81.5 287.5 81.5 309.5C103.5 309.5 125.5 309.5 147.5 309.5C125.34 310.497 103.006 310.831 80.5 310.5C80.5 287.833 80.5 265.167 80.5 242.5C102.503 242.333 124.503 242.5 146.5 243C145.956 243.717 145.289 244.217 144.5 244.5Z" fill="#2A7A91"/>
<path fill-rule="evenodd" clip-rule="evenodd" d="M144.5 244.5C134.202 255.298 123.702 265.965 113 276.5C109.466 272.631 105.633 269.131 101.5 266C94.2574 265.586 92.0907 268.752 95 275.5C99.8333 280.333 104.667 285.167 109.5 290C111.5 290.667 113.5 290.667 115.5 290C126.304 280.197 136.804 270.03 147 259.5C147.5 276.163 147.667 292.83 147.5 309.5C125.5 309.5 103.5 309.5 81.5 309.5C81.5 287.5 81.5 265.5 81.5 243.5C102.673 243.169 123.673 243.503 144.5 244.5Z" fill="#2EB0D3"/>
<path fill-rule="evenodd" clip-rule="evenodd" d="M188.5 244.5C233.501 244.333 278.501 244.5 323.5 245C329.271 247.748 329.937 251.414 325.5 256C279.5 256.667 233.5 256.667 187.5 256C183.434 251.819 183.767 247.986 188.5 244.5Z" fill="#282729"/>
<path fill-rule="evenodd" clip-rule="evenodd" d="M370.5 261.5C379.167 261.5 387.833 261.5 396.5 261.5C396.171 268.241 396.671 274.908 398 281.5C399.563 284.728 402.063 286.895 405.5 288C412.895 290.909 420.395 293.409 428 295.5C430.3 295.506 432.466 295.006 434.5 294C438.466 291.036 442.133 287.703 445.5 284C446.5 283.333 447.5 283.333 448.5 284C454.212 289.377 459.545 295.043 464.5 301C461.013 305.155 457.513 309.322 454 313.5C452.496 317.039 452.163 320.705 453 324.5C456.668 332.33 460.168 340.163 463.5 348C465.167 349 466.833 350 468.5 351C474.491 351.499 480.491 351.666 486.5 351.5C486.5 360.167 486.5 368.833 486.5 377.5C480.824 377.334 475.157 377.501 469.5 378C465.778 379.1 462.944 381.266 461 384.5C457.952 392.645 455.119 400.812 452.5 409C452.329 412.129 453.162 414.963 455 417.5C458 420.5 461 423.5 464 426.5C464.667 427.5 464.667 428.5 464 429.5C458.333 435.167 452.667 440.833 447 446.5C443.133 442.298 438.967 438.465 434.5 435C430.961 433.496 427.295 433.163 423.5 434C417.152 437.45 410.485 440.116 403.5 442C400.527 443.765 398.36 446.265 397 449.5C396.501 455.491 396.334 461.491 396.5 467.5C387.833 467.5 379.167 467.5 370.5 467.5C370.666 461.824 370.499 456.157 370 450.5C368.939 447.438 367.106 444.938 364.5 443C357.172 440.779 350.172 437.779 343.5 434C340.5 433.333 337.5 433.333 334.5 434C329.245 437.251 324.578 441.251 320.5 446C313.525 441.205 307.192 435.372 301.5 428.5C306.232 423.938 310.398 418.938 314 413.5C314.667 410.5 314.667 407.5 314 404.5C310.608 397.653 307.608 390.653 305 383.5C302.9 380.533 300.066 378.7 296.5 378C291.177 377.501 285.844 377.334 280.5 377.5C280.5 368.833 280.5 360.167 280.5 351.5C286.176 351.666 291.843 351.499 297.5 351C299.5 350 301.5 349 303.5 348C306.608 340.017 310.108 332.183 314 324.5C314.837 320.705 314.504 317.039 313 313.5C309.353 309.018 305.519 304.685 301.5 300.5C307.528 294.636 313.695 288.97 320 283.5C324.489 287.32 328.989 291.153 333.5 295C336.833 295.667 340.167 295.667 343.5 295C351.05 291.392 358.717 288.058 366.5 285C368.068 282.696 369.235 280.196 370 277.5C370.499 272.177 370.666 266.844 370.5 261.5Z" fill="#FCDD2F"/>
<path fill-rule="evenodd" clip-rule="evenodd" d="M187.5 289.5C213.169 289.333 238.835 289.5 264.5 290C268.867 294.502 268.201 298.168 262.5 301C237.833 301.667 213.167 301.667 188.5 301C183.636 297.526 183.303 293.693 187.5 289.5Z" fill="#28272A"/>
<path fill-rule="evenodd" clip-rule="evenodd" d="M372.5 318.5C396.682 315.264 414.515 324.264 426 345.5C434.762 370.449 428.262 390.283 406.5 405C381.471 416.701 360.638 411.534 344 389.5C331.648 366.262 335.148 345.762 354.5 328C360.15 324.01 366.15 320.843 372.5 318.5Z" fill="#252425"/>
<path fill-rule="evenodd" clip-rule="evenodd" d="M374.499 330.5C395.394 327.689 409.561 336.022 416.999 355.5C419.894 381.44 408.394 396.106 382.499 399.5C357.198 395.023 346.365 380.023 349.999 354.5C354.747 342.918 362.913 334.918 374.499 330.5Z" fill="#EBF0F8"/>
<path fill-rule="evenodd" clip-rule="evenodd" d="M75.5 346.5C101.169 346.333 126.835 346.5 152.5 347C154.624 348.122 156.457 349.622 158 351.5C159.648 377.079 159.981 402.746 159 428.5C158.071 433.219 155.237 436.052 150.5 437C126.167 437.667 101.833 437.667 77.5 437C73.3333 435.5 70.5 432.667 69 428.5C68.3333 403.833 68.3333 379.167 69 354.5C70.3046 351.039 72.4713 348.372 75.5 346.5Z" fill="#242326"/>
<path fill-rule="evenodd" clip-rule="evenodd" d="M80.5 358.5C102.337 357.172 124.337 357.172 146.5 358.5C146.376 359.107 146.043 359.44 145.5 359.5C124.34 358.503 103.007 358.169 81.5 358.5C81.1667 358.5 80.8333 358.5 80.5 358.5Z" fill="#19604B"/>
<path fill-rule="evenodd" clip-rule="evenodd" d="M81.5 358.5C103.007 358.169 124.34 358.503 145.5 359.5C134.535 369.965 123.702 380.631 113 391.5C109.466 387.631 105.633 384.131 101.5 381C94.5228 380.776 92.3561 383.943 95 390.5C99.8333 395.333 104.667 400.167 109.5 405C111.833 405.667 114.167 405.667 116.5 405C126.702 394.965 136.702 384.798 146.5 374.5C147.497 390.992 147.83 407.658 147.5 424.5C125.5 424.5 103.5 424.5 81.5 424.5C81.5 402.5 81.5 380.5 81.5 358.5Z" fill="#05E29B"/>
<path fill-rule="evenodd" clip-rule="evenodd" d="M268.5 350.5C268.5 353.833 268.5 357.167 268.5 360.5C241.833 360.5 215.167 360.5 188.5 360.5C214.661 359.502 240.995 359.169 267.5 359.5C267.19 356.287 267.523 353.287 268.5 350.5Z" fill="#B3AEAF"/>
<path fill-rule="evenodd" clip-rule="evenodd" d="M146.5 374.5C146.56 373.957 146.893 373.624 147.5 373.5C148.827 390.995 148.827 408.329 147.5 425.5C147.5 425.167 147.5 424.833 147.5 424.5C147.83 407.658 147.497 390.992 146.5 374.5Z" fill="#1C463B"/>
<path fill-rule="evenodd" clip-rule="evenodd" d="M187.5 404.5C212.836 404.333 238.169 404.5 263.5 405C268.796 408.567 268.796 412.234 263.5 416C238.5 416.667 213.5 416.667 188.5 416C183.649 412.573 183.316 408.74 187.5 404.5Z" fill="#242326"/>
<path fill-rule="evenodd" clip-rule="evenodd" d="M80.5 358.5C80.8333 358.5 81.1667 358.5 81.5 358.5C81.5 380.5 81.5 402.5 81.5 424.5C103.5 424.5 125.5 424.5 147.5 424.5C147.5 424.833 147.5 425.167 147.5 425.5C125.167 425.5 102.833 425.5 80.5 425.5C80.5 403.167 80.5 380.833 80.5 358.5Z" fill="#109E71"/>
</svg>
